<svg width="17" height="17" viewBox="0 0 17 17" fill="none" xmlns="http://www.w3.org/2000/svg">
<g id="Icon" clip-path="url(#clip0_212_1407)">
<path id="Vector" d="M11.3478 4.12001C11.1036 4.11957 10.8606 4.15333 10.6258 4.22032L10.6258 4.22031L10.6239 4.22088C10.5496 4.24303 10.4717 4.25019 10.3946 4.24193C10.3176 4.23368 10.2429 4.21018 10.1751 4.1728L10.0945 4.31903L10.1751 4.1728C10.1072 4.13542 10.0474 4.08492 9.99923 4.02422C9.95106 3.96352 9.91544 3.89384 9.89445 3.81925C9.87346 3.74465 9.86752 3.66662 9.87697 3.58971C9.88642 3.51279 9.91108 3.43853 9.94952 3.37124C9.98795 3.30394 10.0394 3.24497 10.1008 3.19774C10.1623 3.15052 10.2325 3.11599 10.3074 3.09617L10.3074 3.09619L10.3104 3.09534C10.6477 2.99932 10.9967 2.9509 11.3474 2.95148L11.3482 2.95148C12.1362 2.94919 12.9057 3.18981 13.552 3.64058C14.1984 4.09134 14.6901 4.73035 14.9602 5.4706C15.2304 6.21085 15.2658 7.01636 15.0617 7.77747C14.8576 8.53858 14.4239 9.2183 13.8196 9.72408L13.6159 9.89462L13.858 10.0042C14.8507 10.4534 15.7049 11.1603 16.3318 12.0515L16.3326 12.0525C16.3771 12.1148 16.4088 12.1854 16.4259 12.2601C16.4429 12.3348 16.4449 12.4121 16.4318 12.4876C16.4187 12.5631 16.3907 12.6352 16.3495 12.6997C16.3083 12.7643 16.2547 12.82 16.1917 12.8637L16.1917 12.8637L16.1897 12.8651C16.0923 12.9347 15.9754 12.972 15.8556 12.9717C15.7619 12.9711 15.6697 12.9482 15.5866 12.905C15.5035 12.8617 15.4319 12.7993 15.3777 12.723C14.9225 12.0772 14.3189 11.5501 13.6177 11.186C12.9165 10.8218 12.138 10.6313 11.3479 10.6304H11.3477C11.1927 10.6304 11.0441 10.5689 10.9345 10.4593C10.825 10.3497 10.7634 10.2011 10.7634 10.0461C10.7634 9.89119 10.825 9.74258 10.9345 9.63301C11.0441 9.52344 11.1927 9.46188 11.3477 9.46188C12.0561 9.46188 12.7354 9.18048 13.2363 8.67958C13.7372 8.17868 14.0186 7.49932 14.0186 6.79095C14.0186 6.08257 13.7372 5.40321 13.2363 4.90231C12.7354 4.40144 12.0561 4.12005 11.3478 4.12001ZM11.3478 4.12001C11.3479 4.12001 11.3479 4.12001 11.348 4.12001L11.3477 4.28695V4.12001C11.3477 4.12001 11.3478 4.12001 11.3478 4.12001ZM8.71743 9.72434L8.51466 9.89492L8.75607 10.0042C9.74876 10.4534 10.603 11.1603 11.2299 12.0515L11.2298 12.0516L11.2349 12.0582C11.2836 12.1206 11.3191 12.1922 11.3393 12.2687L11.5007 12.2262L11.3393 12.2687C11.3594 12.3453 11.3639 12.4251 11.3522 12.5034C11.3406 12.5817 11.3132 12.6568 11.2717 12.7242C11.2302 12.7916 11.1754 12.8498 11.1107 12.8954C11.0459 12.941 10.9726 12.9729 10.8952 12.9893C10.8178 13.0057 10.7378 13.0061 10.6602 12.9907C10.5825 12.9752 10.5089 12.9441 10.4436 12.8993C10.3784 12.8545 10.3229 12.797 10.2806 12.7301L10.2807 12.73L10.2761 12.7234C9.82182 12.0763 9.2184 11.5482 8.51689 11.1836C7.81538 10.819 7.03639 10.6286 6.24578 10.6286C5.45517 10.6286 4.67618 10.819 3.97466 11.1836C3.27315 11.5482 2.66974 12.0763 2.21544 12.7234L2.21506 12.7239C2.16166 12.8006 2.09045 12.8632 2.00755 12.9064C1.92465 12.9495 1.83252 12.9719 1.73906 12.9716L1.73803 12.9717C1.61818 12.972 1.50122 12.9348 1.40371 12.8651L1.40291 12.8645C1.27651 12.7753 1.19067 12.6396 1.1642 12.4871C1.13773 12.3347 1.1728 12.178 1.26171 12.0514C1.88865 11.1603 2.74284 10.4534 3.73548 10.0042L3.97689 9.89492L3.77412 9.72434C3.17148 9.21737 2.73931 8.53735 2.5362 7.77647C2.33309 7.0156 2.36887 6.21066 2.63869 5.4708C2.9085 4.73094 3.3993 4.09195 4.04454 3.64045C4.68978 3.18895 5.45825 2.94678 6.24578 2.94678C7.0333 2.94678 7.80177 3.18895 8.44702 3.64045C9.09226 4.09195 9.58306 4.73094 9.85287 5.4708C10.1227 6.21066 10.1585 7.0156 9.95535 7.77647C9.75224 8.53735 9.32007 9.21737 8.71743 9.72434ZM1.30664 13.0009C1.43262 13.0909 1.58372 13.1391 1.73858 13.1386C1.85903 13.1389 1.97776 13.1101 2.08461 13.0545C2.19146 12.9989 2.28323 12.9182 2.35206 12.8193C2.79096 12.1942 3.37392 11.6839 4.05165 11.3317C4.72938 10.9794 5.48197 10.7955 6.24578 10.7955C7.00959 10.7955 7.76217 10.9794 8.4399 11.3317C9.11764 11.6839 9.7006 12.1942 10.1395 12.8193L1.30664 13.0009ZM4.02498 5.30706C3.73149 5.74629 3.57484 6.26269 3.57484 6.79095C3.57484 7.49932 3.85625 8.17868 4.35714 8.67958C4.85804 9.18048 5.5374 9.46188 6.24578 9.46188C6.77404 9.46188 7.29043 9.30523 7.72967 9.01175C8.1689 8.71826 8.51124 8.30112 8.7134 7.81307C8.91555 7.32502 8.96845 6.78798 8.86539 6.26987C8.76233 5.75176 8.50795 5.27585 8.13441 4.90231C7.76087 4.52877 7.28496 4.27439 6.76685 4.17133C6.24874 4.06828 5.7117 4.12117 5.22366 4.32333C4.73561 4.52548 4.31846 4.86782 4.02498 5.30706Z" fill="#4CAF4F" stroke="#4CAF4F" stroke-width="0.333867"/>
</g>
<defs>
<clipPath id="clip0_212_1407">
<rect width="16.0256" height="16.0256" fill="white" transform="translate(0.737 0.0301514)"/>
</clipPath>
</defs>
</svg>
