<svg width="17" height="17" viewBox="0 0 17 17" fill="none" xmlns="http://www.w3.org/2000/svg">
<g id="Icon">
<g id="Group 2">
<path id="Vector" d="M10.3796 8.3917C10.2992 8.3917 10.2245 8.36959 10.1582 8.33404V8.33499C10.1582 8.46147 10.1091 8.58025 10.0199 8.66921C9.93066 8.75841 9.81197 8.80757 9.68563 8.80757C9.60406 8.80757 9.52847 8.78492 9.46145 8.74842C9.45469 8.86413 9.40844 8.97228 9.32592 9.05488C9.23673 9.14408 9.11803 9.19324 8.99162 9.19324C8.74045 9.19324 8.53649 8.99581 8.52179 8.74834C8.44408 8.79034 8.35622 8.81237 8.2656 8.80655C8.01852 8.79034 7.82503 8.57687 7.82503 8.32043V6.19482L7.58299 6.61414C7.4908 6.77453 7.31823 6.87411 7.13243 6.87411C7.0419 6.87411 6.95246 6.85035 6.87326 6.80497C6.77462 6.74778 6.70406 6.65599 6.67472 6.54617C6.64523 6.43629 6.66049 6.32137 6.71751 6.22288C6.71759 6.22288 7.50944 4.85162 7.55775 4.76739C7.56349 4.75473 7.57985 4.718 7.59378 4.68669C7.60707 4.6568 7.61847 4.62612 7.62941 4.59529C7.86821 3.92112 8.45949 3.50234 9.17261 3.50234C10.0986 3.50234 10.852 4.31928 10.852 5.32344L10.8521 7.91904C10.8521 8.04537 10.803 8.16406 10.7139 8.25335C10.6247 8.34255 10.506 8.39171 10.3795 8.39171L10.3796 8.3917ZM9.17262 3.75345C8.55986 3.75345 8.07147 4.09956 7.8661 4.67927C7.85296 4.71608 7.83928 4.75289 7.82331 4.78876C7.77698 4.89267 7.77698 4.89267 7.76392 4.90761L7.76219 4.90612C7.69754 5.02812 7.50545 5.36076 6.93494 6.34856C6.9115 6.38907 6.90529 6.43611 6.91725 6.4811C6.92936 6.52609 6.95838 6.564 6.99858 6.58721C7.12333 6.65886 7.29418 6.61261 7.36528 6.48873L7.84188 5.66359C7.87035 5.61443 7.92793 5.59028 7.98315 5.60523C8.03805 5.61994 8.0762 5.66973 8.0762 5.72652V8.32051C8.0762 8.4429 8.16854 8.54853 8.28205 8.556C8.3475 8.55946 8.40854 8.53752 8.45439 8.49174C8.49608 8.45005 8.51905 8.39452 8.51905 8.33513V6.63863C8.51905 6.56925 8.57529 6.51301 8.64467 6.51301C8.71405 6.51301 8.77029 6.56917 8.77029 6.63863L8.77021 8.72074C8.77021 8.84282 8.86955 8.94217 8.99163 8.94217C9.05094 8.94217 9.10663 8.9192 9.1484 8.87751C9.19008 8.83574 9.21305 8.78005 9.21305 8.72074V6.63863C9.21305 6.56925 9.26921 6.51301 9.33867 6.51301C9.40805 6.51301 9.46429 6.56917 9.46429 6.63863L9.46421 8.31562V8.33512C9.46421 8.45712 9.56355 8.55646 9.68571 8.55646C9.74494 8.55646 9.80047 8.53342 9.84248 8.49157C9.88417 8.44996 9.90713 8.39443 9.90713 8.33504V6.63854C9.90713 6.56916 9.9633 6.51292 10.0328 6.51292C10.1021 6.51292 10.1584 6.56908 10.1584 6.63854L10.1582 7.9191C10.1582 8.04126 10.2576 8.1406 10.3796 8.1406C10.4389 8.1406 10.4945 8.11756 10.5362 8.07595C10.578 8.0341 10.6009 7.97841 10.6009 7.9191L10.601 5.3235C10.601 4.45788 9.96023 3.75348 9.17261 3.75348L9.17262 3.75345Z" fill="#103E13"/>
<path id="Vector_2" d="M5.44414 10.1957L7.26696 9.10216C7.48673 8.97017 7.76951 9.02626 7.91046 9.2299C7.96191 9.30408 7.98818 9.39052 7.99227 9.47855C8.06023 9.44307 8.13417 9.4238 8.20944 9.4238C8.24798 9.4238 8.28668 9.4286 8.32491 9.43812C8.44738 9.46871 8.55058 9.54525 8.61548 9.65348C8.68045 9.76187 8.69941 9.88889 8.66881 10.0112C8.64057 10.1244 8.57174 10.2197 8.47602 10.285C8.54296 10.3245 8.60069 10.3784 8.64175 10.447C8.70672 10.5554 8.72568 10.6824 8.69516 10.8048C8.66456 10.9271 8.58803 11.0303 8.47964 11.0954L8.47901 11.0958C8.54477 11.1352 8.60148 11.1885 8.64207 11.2561C8.70712 11.3645 8.72608 11.4915 8.69548 11.614C8.6648 11.7364 8.58827 11.8396 8.48004 11.9045L6.25435 13.2398C5.83895 13.4889 5.35874 13.5749 4.90236 13.4817C4.4419 13.3876 4.06056 13.1229 3.82868 12.7364C3.46174 12.1248 3.51673 11.4022 3.97192 10.8508C3.99277 10.8256 4.0133 10.8 4.03194 10.7734C4.05168 10.7453 4.07473 10.7122 4.08259 10.7009C4.12971 10.6168 4.89853 9.23158 4.89844 9.23174C4.97608 9.09165 5.1216 9.01235 5.27167 9.01243C5.34168 9.01243 5.41271 9.02966 5.47824 9.066C5.55737 9.1102 5.62383 9.17462 5.67032 9.25226C5.76589 9.41154 5.76927 9.61087 5.67929 9.77218L5.44414 10.1957ZM5.45508 9.38139C5.43069 9.34073 5.39718 9.30832 5.3562 9.28535C5.27149 9.23847 5.16483 9.26899 5.11819 9.35339C4.56806 10.3445 4.38053 10.6822 4.30816 10.8024L4.30981 10.8028C4.30375 10.823 4.30375 10.823 4.23752 10.9176C4.21503 10.9496 4.19056 10.9804 4.16563 11.0106C3.77422 11.4849 3.72877 12.0817 4.04394 12.6072C4.23917 12.9327 4.56184 13.1558 4.95252 13.2356C5.34746 13.3159 5.76372 13.2412 6.12501 13.0244L8.3509 11.6891C8.40171 11.6586 8.43758 11.6103 8.4519 11.5529C8.46621 11.4957 8.45733 11.4361 8.42681 11.3853C8.36404 11.2807 8.22772 11.2463 8.12311 11.3093L7.02504 11.9681C6.96558 12.0038 6.88833 11.9846 6.8527 11.9251C6.81699 11.8656 6.83626 11.7884 6.89573 11.7527L7.99387 11.094L8.35051 10.88C8.40132 10.8495 8.43727 10.8011 8.45159 10.7439C8.4659 10.6866 8.45701 10.627 8.42649 10.5762C8.36365 10.4715 8.22733 10.4375 8.1228 10.5002L6.66801 11.373C6.60839 11.4088 6.53138 11.3894 6.49567 11.3299C6.45996 11.2705 6.47931 11.1933 6.5387 11.1576L8.32416 10.0865C8.37498 10.056 8.41084 10.0077 8.42516 9.95036C8.43948 9.89309 8.43059 9.83355 8.40015 9.78274C8.36971 9.732 8.32133 9.69613 8.26399 9.68182C8.20633 9.6675 8.14702 9.67639 8.09637 9.70675L7.76585 9.90505C7.76577 9.90505 7.76577 9.90513 7.76569 9.90513H7.76561L6.31091 10.7778C6.25129 10.8137 6.1742 10.7944 6.13857 10.7348C6.10286 10.6754 6.12221 10.5982 6.1816 10.5625L7.63638 9.68977C7.68719 9.65925 7.72314 9.61087 7.73745 9.55369C7.75318 9.49092 7.74123 9.42673 7.70394 9.37293C7.63929 9.27941 7.50101 9.25455 7.39616 9.31755L5.17188 10.6519C5.12319 10.681 5.06081 10.6739 5.01999 10.6345C4.97909 10.5951 4.96988 10.533 4.99741 10.4834L5.45993 9.65005C5.50634 9.56675 5.50453 9.46386 5.45505 9.38142L5.45508 9.38139Z" fill="#103E13"/>
<path id="Vector_3" d="M14.1544 12.7363C13.9226 13.1229 13.5414 13.3875 13.0808 13.4816C12.6244 13.5747 12.1443 13.4888 11.7288 13.2397L9.50295 11.9044C9.39464 11.8395 9.31802 11.7363 9.28735 11.6137C9.25691 11.4914 9.27594 11.3643 9.34083 11.2561C9.38134 11.1885 9.43813 11.1351 9.50397 11.0957L9.50334 11.0953C9.39503 11.0304 9.31842 10.9272 9.2879 10.8048C9.25723 10.6824 9.27626 10.5553 9.34123 10.4469C9.38308 10.3773 9.44042 10.3228 9.50586 10.2842C9.41084 10.2189 9.34241 10.1239 9.31425 10.0113C9.28358 9.8888 9.30261 9.76176 9.36758 9.65352C9.43248 9.54521 9.53575 9.46868 9.65815 9.43808C9.69638 9.42849 9.73516 9.42377 9.77354 9.42377C9.8489 9.42384 9.92284 9.44296 9.9908 9.47851C9.99497 9.39049 10.0212 9.30405 10.0726 9.22987C10.2136 9.02639 10.4962 8.97007 10.7163 9.10213L12.539 10.1955L12.3041 9.77229C12.2139 9.61073 12.2172 9.4114 12.3128 9.25204C12.3594 9.17448 12.4259 9.11006 12.5054 9.06546C12.5708 9.02928 12.6416 9.01214 12.7114 9.01214C12.8614 9.01221 13.0071 9.09134 13.0847 9.23144C13.3549 9.71842 13.865 10.6368 13.9008 10.7009C13.9084 10.712 13.9315 10.7451 13.9512 10.7732C13.97 10.7998 13.9903 10.8253 14.0113 10.8506C14.4665 11.4023 14.5213 12.1248 14.1544 12.7363L14.1544 12.7363ZM13.8175 11.0107C13.7925 10.9804 13.768 10.9495 13.7456 10.9177C13.6777 10.8212 13.676 10.8187 13.6708 10.7935C13.5914 10.662 13.3976 10.3131 12.8648 9.35329C12.8181 9.26905 12.7119 9.2383 12.6274 9.28502C12.5858 9.3083 12.5523 9.34079 12.5279 9.38145C12.4785 9.46381 12.4767 9.56669 12.5233 9.65024L12.9857 10.4833C13.0133 10.533 13.0041 10.595 12.9632 10.6345C12.9225 10.674 12.8602 10.681 12.8113 10.6519L10.587 9.3175C10.4821 9.25465 10.3439 9.27928 10.2791 9.37288C10.2418 9.42668 10.23 9.49087 10.2455 9.55356C10.2599 9.61082 10.2958 9.65912 10.3467 9.68964C10.3468 9.68971 10.3469 9.68987 10.3471 9.68995L11.8014 10.5624C11.8609 10.5981 11.8801 10.6752 11.8444 10.7348C11.8087 10.7942 11.7317 10.8136 11.6721 10.7778L9.88662 9.70671C9.83597 9.67635 9.77635 9.66738 9.71908 9.68178C9.66166 9.69609 9.61337 9.73196 9.58293 9.78285C9.55241 9.83358 9.5436 9.89313 9.55776 9.95039C9.57207 10.0077 9.60802 10.056 9.65883 10.0865L10.0063 10.2949L11.4442 11.1577C11.5037 11.1934 11.523 11.2704 11.4872 11.33C11.4515 11.3894 11.3745 11.4087 11.3149 11.373L9.86028 10.5003C9.75566 10.4374 9.61943 10.4715 9.5565 10.5763C9.52598 10.6271 9.51717 10.6866 9.53133 10.7439C9.54564 10.8012 9.58159 10.8495 9.63248 10.8801L9.98912 11.094L11.0871 11.7528C11.1466 11.7885 11.1658 11.8656 11.1301 11.9251C11.0944 11.9845 11.0174 12.004 10.9578 11.9681L9.85981 11.3094C9.80915 11.279 9.74976 11.27 9.69218 11.2844C9.63492 11.2988 9.58647 11.3346 9.55603 11.3854C9.52559 11.4362 9.5167 11.4958 9.53086 11.553C9.54517 11.6102 9.58112 11.6585 9.63201 11.6891L11.8579 13.0244C12.2191 13.2411 12.6357 13.3162 13.0304 13.2356C13.421 13.1559 13.7437 12.9327 13.9389 12.6072C14.2544 12.0816 14.209 11.4848 13.8177 11.0107L13.8175 11.0107Z" fill="#103E13"/>
</g>
</g>
</svg>
