<svg width="17" height="17" viewBox="0 0 17 17" fill="none" xmlns="http://www.w3.org/2000/svg">
<g id="Icon">
<g id="Group 1">
<path id="Vector" d="M9.51967 6.84467C9.4155 6.84467 9.33081 6.76012 9.33081 6.65581V6.33486C9.33081 6.23068 9.41536 6.146 9.51967 6.146C9.62384 6.146 9.70853 6.23055 9.70853 6.33486V6.65581C9.70853 6.76012 9.62385 6.84467 9.51967 6.84467Z" fill="#103E13"/>
<path id="Vector_2" d="M8.72563 6.84467C8.62146 6.84467 8.53677 6.76012 8.53677 6.65581V6.33486C8.53677 6.23068 8.62132 6.146 8.72563 6.146C8.82981 6.146 8.91449 6.23055 8.91449 6.33486V6.65581C8.91436 6.76012 8.82994 6.84467 8.72563 6.84467Z" fill="#103E13"/>
<path id="Vector_3" d="M7.93169 6.84467C7.82752 6.84467 7.74283 6.76012 7.74283 6.65581V6.33486C7.74283 6.23068 7.82738 6.146 7.93169 6.146C8.03586 6.146 8.12055 6.23055 8.12055 6.33486V6.65581C8.12055 6.76012 8.036 6.84467 7.93169 6.84467Z" fill="#103E13"/>
<path id="Vector_4" d="M9.51967 8.15716C9.4155 8.15716 9.33081 8.07261 9.33081 7.9683V7.64748C9.33081 7.5433 9.41536 7.45862 9.51967 7.45862C9.62384 7.45862 9.70853 7.54317 9.70853 7.64748V7.9683C9.70853 8.07261 9.62385 8.15716 9.51967 8.15716Z" fill="#103E13"/>
<path id="Vector_5" d="M8.72563 8.15716C8.62146 8.15716 8.53677 8.07261 8.53677 7.9683V7.64748C8.53677 7.5433 8.62132 7.45862 8.72563 7.45862C8.82981 7.45862 8.91449 7.54317 8.91449 7.64748V7.9683C8.91436 8.07261 8.82994 8.15716 8.72563 8.15716Z" fill="#103E13"/>
<path id="Vector_6" d="M7.93169 8.15716C7.82752 8.15716 7.74283 8.07261 7.74283 7.9683V7.64748C7.74283 7.5433 7.82738 7.45862 7.93169 7.45862C8.03586 7.45862 8.12055 7.54317 8.12055 7.64748V7.9683C8.12055 8.07261 8.036 8.15716 7.93169 8.15716Z" fill="#103E13"/>
<path id="Vector_7" d="M9.51967 9.46967C9.4155 9.46967 9.33081 9.38512 9.33081 9.28081V8.95986C9.33081 8.85568 9.41536 8.771 9.51967 8.771C9.62384 8.771 9.70853 8.85555 9.70853 8.95986V9.28081C9.70853 9.38512 9.62385 9.46967 9.51967 9.46967Z" fill="#103E13"/>
<path id="Vector_8" d="M8.72563 9.46967C8.62146 9.46967 8.53677 9.38512 8.53677 9.28081V8.95986C8.53677 8.85568 8.62132 8.771 8.72563 8.771C8.82981 8.771 8.91449 8.85555 8.91449 8.95986V9.28081C8.91436 9.38512 8.82994 9.46967 8.72563 9.46967Z" fill="#103E13"/>
<path id="Vector_9" d="M7.93169 9.46967C7.82752 9.46967 7.74283 9.38512 7.74283 9.28081V8.95986C7.74283 8.85568 7.82738 8.771 7.93169 8.771C8.03586 8.771 8.12055 8.85555 8.12055 8.95986V9.28081C8.12055 9.38512 8.036 9.46967 7.93169 9.46967Z" fill="#103E13"/>
<path id="Vector_10" d="M9.51967 10.7819C9.4155 10.7819 9.33081 10.6974 9.33081 10.5931V10.2721C9.33081 10.1679 9.41536 10.0833 9.51967 10.0833C9.62384 10.0833 9.70853 10.1678 9.70853 10.2721V10.5931C9.70853 10.6974 9.62385 10.7819 9.51967 10.7819Z" fill="#103E13"/>
<path id="Vector_11" d="M8.72563 10.7819C8.62146 10.7819 8.53677 10.6974 8.53677 10.5931V10.2721C8.53677 10.1679 8.62132 10.0833 8.72563 10.0833C8.82981 10.0833 8.91449 10.1678 8.91449 10.2721V10.5931C8.91436 10.6974 8.82994 10.7819 8.72563 10.7819Z" fill="#103E13"/>
<path id="Vector_12" d="M7.93169 10.7819C7.82752 10.7819 7.74283 10.6974 7.74283 10.5931V10.2721C7.74283 10.1679 7.82738 10.0833 7.93169 10.0833C8.03586 10.0833 8.12055 10.1678 8.12055 10.2721V10.5931C8.12055 10.6974 8.036 10.7819 7.93169 10.7819Z" fill="#103E13"/>
<path id="Vector_13" d="M9.51967 12.0944C9.4155 12.0944 9.33081 12.0099 9.33081 11.9056V11.5847C9.33081 11.4806 9.41536 11.3959 9.51967 11.3959C9.62384 11.3959 9.70853 11.4804 9.70853 11.5847V11.9056C9.70853 12.0097 9.62385 12.0944 9.51967 12.0944Z" fill="#103E13"/>
<path id="Vector_14" d="M8.72563 12.0944C8.62146 12.0944 8.53677 12.0099 8.53677 11.9056V11.5847C8.53677 11.4806 8.62132 11.3959 8.72563 11.3959C8.82981 11.3959 8.91449 11.4804 8.91449 11.5847V11.9056C8.91436 12.0097 8.82994 12.0944 8.72563 12.0944Z" fill="#103E13"/>
<path id="Vector_15" d="M7.93169 12.0944C7.82752 12.0944 7.74283 12.0099 7.74283 11.9056L7.74296 11.5847C7.74296 11.4806 7.82751 11.3959 7.93182 11.3959C8.03599 11.3959 8.12068 11.4804 8.12068 11.5847V11.9056C8.12055 12.0097 8.036 12.0944 7.93169 12.0944Z" fill="#103E13"/>
<path id="Vector_16" d="M2.53654 13.4005C2.53654 13.5047 2.62109 13.5894 2.7254 13.5894H14.2263C14.3305 13.5894 14.4152 13.5048 14.4152 13.4005C14.4152 13.2963 14.3307 13.2116 14.2263 13.2116H13.8772V7.78922C13.8772 7.68505 13.7927 7.60036 13.6884 7.60036L10.6049 7.60049V3.69121C10.6049 3.6251 10.5704 3.56399 10.514 3.52974C10.4578 3.49537 10.3874 3.49326 10.329 3.52368L6.82324 5.34893C6.76068 5.38146 6.7217 5.44599 6.7217 5.51645V8.93113H3.32894C3.22476 8.93113 3.14008 9.01569 3.14008 9.11999V13.2117H2.72497C2.6208 13.2115 2.53638 13.2961 2.53638 13.4004L2.53654 13.4005ZM10.6049 10.4608H13.4997V13.2118L10.6049 13.2117V10.4608ZM10.6049 9.14844H13.4997V10.0833L10.6049 10.0831V9.14844ZM10.6049 7.97801H13.4997V8.771H10.6049V7.97801ZM7.09922 5.63113L10.2271 4.00251V13.2115H7.09922V5.63113ZM4.45139 11.7032C4.45139 11.3113 4.76194 10.9923 5.14374 10.9923C5.52553 10.9923 5.83622 11.3112 5.83622 11.7032V13.2117H4.45139V11.7032ZM3.51778 9.30879H6.72165V13.2117H6.21393V11.7032C6.21393 11.103 5.73402 10.6147 5.14374 10.6147C4.55372 10.6147 4.07382 11.1029 4.07382 11.7032V13.2117H3.51778V9.30879Z" fill="#103E13"/>
</g>
</g>
</svg>
