<svg width="17" height="17" viewBox="0 0 17 17" fill="none" xmlns="http://www.w3.org/2000/svg">
<g id="Icon">
<g id="Group 2">
<g id="Vector">
<mask id="path-1-inside-1_212_1413" fill="white">
<path d="M10.3412 7.92435C10.2608 7.92435 10.1862 7.90225 10.1199 7.8667V7.86764C10.1199 7.99412 10.0707 8.1129 9.98153 8.20186C9.89233 8.29106 9.77364 8.34022 9.6473 8.34022C9.56573 8.34022 9.49014 8.31757 9.42312 8.28107C9.41636 8.39678 9.37011 8.50493 9.28759 8.58753C9.1984 8.67673 9.0797 8.72589 8.95329 8.72589C8.70212 8.72589 8.49816 8.52846 8.48346 8.281C8.40575 8.323 8.31789 8.34502 8.22727 8.3392C7.98019 8.323 7.7867 8.10952 7.7867 7.85309V5.72748L7.54466 6.1468C7.45247 6.30718 7.2799 6.40676 7.0941 6.40676C7.00357 6.40676 6.91413 6.38301 6.83493 6.33762C6.73629 6.28044 6.66573 6.18864 6.63639 6.07883C6.6069 5.96894 6.62216 5.85402 6.67918 5.75553C6.67926 5.75553 7.47111 4.38428 7.51942 4.30005C7.52516 4.28738 7.54152 4.25065 7.55545 4.21934C7.56874 4.18945 7.58014 4.15878 7.59108 4.12794C7.82988 3.45377 8.42116 3.03499 9.13428 3.03499C10.0603 3.03499 10.8137 3.85193 10.8137 4.8561L10.8138 7.4517C10.8138 7.57802 10.7647 7.69672 10.6756 7.786C10.5864 7.8752 10.4677 7.92436 10.3412 7.92436L10.3412 7.92435ZM9.13429 3.28611C8.52153 3.28611 8.03314 3.63221 7.82777 4.21192C7.81463 4.24874 7.80095 4.28555 7.78498 4.32142C7.73865 4.42532 7.73865 4.42532 7.72559 4.44027L7.72386 4.43877C7.65921 4.56077 7.46712 4.89342 6.89661 5.88121C6.87317 5.92172 6.86696 5.96876 6.87892 6.01375C6.89103 6.05874 6.92005 6.09666 6.96025 6.11986C7.085 6.19152 7.25585 6.14527 7.32695 6.02138L7.80355 5.19625C7.83202 5.14709 7.8896 5.12294 7.94482 5.13788C7.99972 5.15259 8.03787 5.20238 8.03787 5.25917V7.85316C8.03787 7.97555 8.13021 8.08118 8.24372 8.08866C8.30917 8.09212 8.37021 8.07017 8.41606 8.02439C8.45775 7.9827 8.48072 7.92717 8.48072 7.86778V6.17128C8.48072 6.10191 8.53696 6.04566 8.60634 6.04566C8.67571 6.04566 8.73196 6.10183 8.73196 6.17128L8.73188 8.2534C8.73188 8.37548 8.83122 8.47482 8.9533 8.47482C9.01261 8.47482 9.0683 8.45185 9.11007 8.41016C9.15175 8.3684 9.17472 8.31271 9.17472 8.2534V6.17128C9.17472 6.1019 9.23088 6.04566 9.30034 6.04566C9.36972 6.04566 9.42596 6.10183 9.42596 6.17128L9.42588 7.84827V7.86778C9.42588 7.98978 9.52522 8.08912 9.64738 8.08912C9.70661 8.08912 9.76214 8.06607 9.80415 8.02422C9.84583 7.98261 9.8688 7.92708 9.8688 7.86769V6.17119C9.8688 6.10182 9.92497 6.04558 9.99442 6.04558C10.0638 6.04558 10.12 6.10174 10.12 6.17119L10.1199 7.45175C10.1199 7.57391 10.2192 7.67326 10.3412 7.67326C10.4006 7.67326 10.4561 7.65021 10.4978 7.6086C10.5397 7.56675 10.5626 7.51106 10.5626 7.45175L10.5626 4.85616C10.5626 3.99053 9.9219 3.28613 9.13428 3.28613L9.13429 3.28611Z"/>
</mask>
<path d="M10.3412 7.92435C10.2608 7.92435 10.1862 7.90225 10.1199 7.8667V7.86764C10.1199 7.99412 10.0707 8.1129 9.98153 8.20186C9.89233 8.29106 9.77364 8.34022 9.6473 8.34022C9.56573 8.34022 9.49014 8.31757 9.42312 8.28107C9.41636 8.39678 9.37011 8.50493 9.28759 8.58753C9.1984 8.67673 9.0797 8.72589 8.95329 8.72589C8.70212 8.72589 8.49816 8.52846 8.48346 8.281C8.40575 8.323 8.31789 8.34502 8.22727 8.3392C7.98019 8.323 7.7867 8.10952 7.7867 7.85309V5.72748L7.54466 6.1468C7.45247 6.30718 7.2799 6.40676 7.0941 6.40676C7.00357 6.40676 6.91413 6.38301 6.83493 6.33762C6.73629 6.28044 6.66573 6.18864 6.63639 6.07883C6.6069 5.96894 6.62216 5.85402 6.67918 5.75553C6.67926 5.75553 7.47111 4.38428 7.51942 4.30005C7.52516 4.28738 7.54152 4.25065 7.55545 4.21934C7.56874 4.18945 7.58014 4.15878 7.59108 4.12794C7.82988 3.45377 8.42116 3.03499 9.13428 3.03499C10.0603 3.03499 10.8137 3.85193 10.8137 4.8561L10.8138 7.4517C10.8138 7.57802 10.7647 7.69672 10.6756 7.786C10.5864 7.8752 10.4677 7.92436 10.3412 7.92436L10.3412 7.92435ZM9.13429 3.28611C8.52153 3.28611 8.03314 3.63221 7.82777 4.21192C7.81463 4.24874 7.80095 4.28555 7.78498 4.32142C7.73865 4.42532 7.73865 4.42532 7.72559 4.44027L7.72386 4.43877C7.65921 4.56077 7.46712 4.89342 6.89661 5.88121C6.87317 5.92172 6.86696 5.96876 6.87892 6.01375C6.89103 6.05874 6.92005 6.09666 6.96025 6.11986C7.085 6.19152 7.25585 6.14527 7.32695 6.02138L7.80355 5.19625C7.83202 5.14709 7.8896 5.12294 7.94482 5.13788C7.99972 5.15259 8.03787 5.20238 8.03787 5.25917V7.85316C8.03787 7.97555 8.13021 8.08118 8.24372 8.08866C8.30917 8.09212 8.37021 8.07017 8.41606 8.02439C8.45775 7.9827 8.48072 7.92717 8.48072 7.86778V6.17128C8.48072 6.10191 8.53696 6.04566 8.60634 6.04566C8.67571 6.04566 8.73196 6.10183 8.73196 6.17128L8.73188 8.2534C8.73188 8.37548 8.83122 8.47482 8.9533 8.47482C9.01261 8.47482 9.0683 8.45185 9.11007 8.41016C9.15175 8.3684 9.17472 8.31271 9.17472 8.2534V6.17128C9.17472 6.1019 9.23088 6.04566 9.30034 6.04566C9.36972 6.04566 9.42596 6.10183 9.42596 6.17128L9.42588 7.84827V7.86778C9.42588 7.98978 9.52522 8.08912 9.64738 8.08912C9.70661 8.08912 9.76214 8.06607 9.80415 8.02422C9.84583 7.98261 9.8688 7.92708 9.8688 7.86769V6.17119C9.8688 6.10182 9.92497 6.04558 9.99442 6.04558C10.0638 6.04558 10.12 6.10174 10.12 6.17119L10.1199 7.45175C10.1199 7.57391 10.2192 7.67326 10.3412 7.67326C10.4006 7.67326 10.4561 7.65021 10.4978 7.6086C10.5397 7.56675 10.5626 7.51106 10.5626 7.45175L10.5626 4.85616C10.5626 3.99053 9.9219 3.28613 9.13428 3.28613L9.13429 3.28611Z" fill="#4CAF4F"/>
<path d="M10.3412 7.92435V7.4792H11.914L10.5745 8.30347L10.3412 7.92435ZM10.1199 7.8667H9.67473V7.12289L10.3302 7.47438L10.1199 7.8667ZM9.98153 8.20186L9.66676 7.88709L9.66717 7.88668L9.98153 8.20186ZM9.42312 8.28107L8.97873 8.25509L9.01969 7.55449L9.63602 7.89013L9.42312 8.28107ZM9.28759 8.58753L9.60253 8.90214L9.60237 8.9023L9.28759 8.58753ZM8.48346 8.281L8.2718 7.88938L8.88641 7.5572L8.92783 8.2546L8.48346 8.281ZM8.22727 8.3392L8.19873 8.78344L8.19813 8.7834L8.22727 8.3392ZM7.7867 5.72748L7.40116 5.50494L8.23185 4.0658V5.72748H7.7867ZM7.54466 6.1468L7.15871 5.92496L7.15912 5.92426L7.54466 6.1468ZM6.83493 6.33762L6.61361 6.72387L6.61166 6.72274L6.83493 6.33762ZM6.63639 6.07883L7.06633 5.96342L7.06646 5.96392L6.63639 6.07883ZM6.67918 5.75553L6.29395 5.53247L6.42255 5.31038H6.67918V5.75553ZM7.51942 4.30005L7.92484 4.48387L7.9161 4.50315L7.90557 4.52151L7.51942 4.30005ZM7.55545 4.21934L7.1487 4.03846L7.1487 4.03845L7.55545 4.21934ZM7.59108 4.12794L8.01069 4.27657L8.01064 4.27669L7.59108 4.12794ZM10.8137 4.8561L10.3685 4.85611V4.8561H10.8137ZM10.8138 7.4517L11.2589 7.45168V7.4517H10.8138ZM10.6756 7.786L10.9906 8.10048L10.9904 8.10077L10.6756 7.786ZM10.3412 7.92436V8.36952H8.76846L10.1079 7.54524L10.3412 7.92436ZM9.13429 3.28611V2.84095H9.72444L9.56231 3.4084L9.13429 3.28611ZM7.82777 4.21192L8.24737 4.36058L8.24703 4.36153L7.82777 4.21192ZM7.78498 4.32142L8.19166 4.50246L8.19155 4.5027L7.78498 4.32142ZM7.72559 4.44027L8.06082 4.73316L7.7696 5.06646L7.43463 4.77717L7.72559 4.44027ZM7.72386 4.43877L7.33053 4.23032L7.59209 3.73678L8.01482 4.10187L7.72386 4.43877ZM6.89661 5.88121L7.2821 6.10385L7.28191 6.10417L6.89661 5.88121ZM6.87892 6.01375L6.44906 6.12948L6.44869 6.12809L6.87892 6.01375ZM6.96025 6.11986L6.73852 6.50587L6.73769 6.50539L6.96025 6.11986ZM7.32695 6.02138L6.94087 5.79979L6.94148 5.79873L7.32695 6.02138ZM7.80355 5.19625L7.41807 4.9736L7.41834 4.97313L7.80355 5.19625ZM7.94482 5.13788L7.82962 5.56788L7.82852 5.56758L7.94482 5.13788ZM8.24372 8.08866L8.22021 8.53323L8.21449 8.53285L8.24372 8.08866ZM8.41606 8.02439L8.73084 8.33916L8.73056 8.33944L8.41606 8.02439ZM8.73196 6.17128H9.17711V6.1713L8.73196 6.17128ZM8.73188 8.2534H8.28672V8.25338L8.73188 8.2534ZM9.11007 8.41016L9.42513 8.72464L9.42453 8.72524L9.11007 8.41016ZM9.42596 6.17128H9.87111V6.1713L9.42596 6.17128ZM9.42588 7.84827H8.98072V7.84825L9.42588 7.84827ZM9.80415 8.02422L10.1186 8.33929L10.1183 8.33959L9.80415 8.02422ZM10.12 6.17119H10.5652V6.17125L10.12 6.17119ZM10.1199 7.45175H9.67473L9.67473 7.4517L10.1199 7.45175ZM10.4978 7.6086L10.8126 7.92337L10.8123 7.92367L10.4978 7.6086ZM10.5626 7.45175H10.1174V7.45174L10.5626 7.45175ZM10.5626 4.85616H11.0078V4.85617L10.5626 4.85616ZM9.13428 3.28613V3.73129H8.54412L8.70625 3.16384L9.13428 3.28613ZM10.3412 8.36951C10.1773 8.36951 10.031 8.32413 9.90953 8.25901L10.3302 7.47438C10.336 7.47746 10.3396 7.47864 10.3411 7.47903C10.3423 7.47937 10.3422 7.4792 10.3412 7.4792V8.36951ZM10.565 7.8667V7.86764H9.67473V7.8667H10.565ZM10.565 7.86764C10.565 8.11182 10.4692 8.34417 10.2959 8.51705L9.66717 7.88668C9.67035 7.8835 9.67193 7.88078 9.67285 7.87856C9.67377 7.87633 9.67473 7.8729 9.67473 7.86764H10.565ZM10.2963 8.51664C10.1235 8.68939 9.8916 8.78538 9.6473 8.78538V7.89507C9.65241 7.89507 9.65577 7.89414 9.65805 7.8932C9.66033 7.89225 9.66328 7.89057 9.66676 7.88709L10.2963 8.51664ZM9.6473 8.78538C9.48125 8.78538 9.33308 8.73892 9.21022 8.67202L9.63602 7.89013C9.64182 7.89328 9.64549 7.89449 9.64695 7.89488C9.6482 7.89522 9.6481 7.89507 9.6473 7.89507V8.78538ZM9.86752 8.30705C9.85471 8.52617 9.76582 8.73867 9.60253 8.90214L8.97266 8.27292C8.97431 8.27127 8.97527 8.26981 8.97607 8.26797C8.97695 8.26597 8.97833 8.26189 8.97873 8.25509L9.86752 8.30705ZM9.60237 8.9023C9.42958 9.07509 9.19763 9.17105 8.95329 9.17105V8.28074C8.95847 8.28074 8.96186 8.2798 8.96413 8.27885C8.96641 8.27791 8.96935 8.27623 8.97282 8.27276L9.60237 8.9023ZM8.95329 9.17105C8.46184 9.17105 8.06748 8.78533 8.03909 8.30739L8.92783 8.2546C8.92828 8.26217 8.93138 8.26881 8.93686 8.27404C8.93954 8.27659 8.94225 8.27823 8.9446 8.27919C8.94668 8.28004 8.94931 8.28074 8.95329 8.28074V9.17105ZM8.69512 8.67261C8.55133 8.75033 8.38085 8.79514 8.19873 8.78344L8.2558 7.89496C8.25581 7.89496 8.25676 7.89506 8.25911 7.89451C8.26162 7.89392 8.26597 7.89253 8.2718 7.88938L8.69512 8.67261ZM8.19813 8.7834C7.70386 8.75099 7.34154 8.33065 7.34154 7.85309H8.23185C8.23185 7.86814 8.23732 7.87973 8.24417 7.88729C8.25084 7.89465 8.25538 7.89493 8.2564 7.895L8.19813 8.7834ZM7.34154 7.85309V5.72748H8.23185V7.85309H7.34154ZM8.17224 5.95002L7.9302 6.36934L7.15912 5.92426L7.40116 5.50494L8.17224 5.95002ZM7.9306 6.36864C7.75859 6.66789 7.43841 6.85192 7.0941 6.85192V5.96161C7.1214 5.96161 7.14635 5.94647 7.15872 5.92496L7.9306 6.36864ZM7.0941 6.85192C6.92576 6.85192 6.76005 6.80777 6.61361 6.72386L7.05624 5.95138C7.06822 5.95824 7.08137 5.96161 7.0941 5.96161V6.85192ZM6.61166 6.72274C6.4118 6.60687 6.26633 6.41831 6.20632 6.19373L7.06646 5.96392C7.06606 5.9624 7.06495 5.95971 7.0628 5.95692C7.06067 5.95415 7.05871 5.9528 7.05819 5.9525L6.61166 6.72274ZM6.20646 6.19423C6.14622 5.96982 6.17776 5.73314 6.29395 5.53247L7.06442 5.9786C7.06505 5.9775 7.06616 5.97496 7.06664 5.97136C7.06712 5.96776 7.06672 5.96488 7.06633 5.96342L6.20646 6.19423ZM6.67918 5.31038C6.46082 5.36762 6.29737 5.52666 6.29615 5.52871C6.29574 5.5294 6.29514 5.53043 6.29495 5.53076C6.29483 5.53095 6.29464 5.53127 6.29458 5.53138C6.29454 5.53145 6.29446 5.53159 6.29444 5.53162C6.29438 5.53173 6.2944 5.5317 6.29456 5.53141C6.29487 5.53089 6.29537 5.53001 6.29611 5.52873C6.29758 5.5262 6.29977 5.5224 6.30267 5.51738C6.30847 5.50735 6.31699 5.49261 6.32786 5.47379C6.3496 5.43614 6.38072 5.38227 6.41822 5.31734C6.49321 5.18748 6.5937 5.01345 6.6957 4.83679C6.90004 4.48288 7.10953 4.11996 7.13326 4.07858L7.90557 4.52151C7.881 4.56437 7.67041 4.92919 7.46673 5.28196C7.36471 5.45864 7.26421 5.6327 7.1892 5.76258C7.15169 5.82752 7.12056 5.88143 7.09879 5.91911C7.08791 5.93795 7.07936 5.95275 7.07353 5.96285C7.07061 5.96789 7.06835 5.9718 7.06681 5.97446C7.06605 5.97578 7.06542 5.97687 7.06496 5.97767C7.06474 5.97804 7.06447 5.9785 7.06422 5.97894C7.06412 5.97911 7.06384 5.9796 7.06349 5.98019C7.06328 5.98056 7.06265 5.98162 7.06224 5.98232C7.061 5.9844 6.89755 6.14345 6.67918 6.20069V5.31038ZM7.11399 4.11622C7.11889 4.10541 7.13442 4.07057 7.1487 4.03846L7.96219 4.40023C7.94863 4.43073 7.93143 4.46935 7.92484 4.48387L7.11399 4.11622ZM7.1487 4.03845C7.15489 4.02454 7.16173 4.00676 7.17151 3.97919L8.01064 4.27669C7.99855 4.31079 7.98259 4.35437 7.96219 4.40024L7.1487 4.03845ZM7.17147 3.97931C7.47297 3.12813 8.23185 2.58984 9.13428 2.58984V3.48015C8.61048 3.48015 8.18678 3.77942 8.01069 4.27657L7.17147 3.97931ZM9.13428 2.58984C10.3394 2.58984 11.2589 3.64071 11.2589 4.8561H10.3685C10.3685 4.06315 9.78121 3.48015 9.13428 3.48015V2.58984ZM11.2589 4.85608L11.2589 7.45168L10.3686 7.45171L10.3685 4.85611L11.2589 4.85608ZM11.2589 7.4517C11.2589 7.69581 11.1632 7.92764 10.9906 8.10048L10.3605 7.47152C10.364 7.468 10.3658 7.465 10.3667 7.46266C10.3677 7.46032 10.3686 7.45688 10.3686 7.4517H11.2589ZM10.9904 8.10077C10.8175 8.27358 10.5856 8.36952 10.3412 8.36952V7.47921C10.3464 7.47921 10.3499 7.47826 10.3521 7.47732C10.3544 7.47638 10.3573 7.4747 10.3608 7.47123L10.9904 8.10077ZM10.1079 7.54524L10.1079 7.54523L10.5745 8.30347L10.5745 8.30348L10.1079 7.54524ZM9.13429 3.73126C8.71104 3.73126 8.39011 3.95768 8.24737 4.36058L7.40817 4.06327C7.67618 3.30675 8.33202 2.84095 9.13429 2.84095V3.73126ZM8.24703 4.36153C8.23298 4.40091 8.21472 4.45064 8.19166 4.50246L7.3783 4.14037C7.38717 4.12045 7.39629 4.09656 7.40851 4.06231L8.24703 4.36153ZM8.19155 4.5027C8.17117 4.54842 8.15409 4.58703 8.14102 4.61318C8.13291 4.62941 8.11978 4.65443 8.10073 4.68214C8.08144 4.71022 8.06237 4.73139 8.06082 4.73316L7.39037 4.14737C7.39141 4.14617 7.39107 4.14656 7.39054 4.14718C7.38986 4.14797 7.38814 4.14998 7.38587 4.15275C7.38079 4.15893 7.37416 4.16745 7.367 4.17787C7.35307 4.19813 7.34529 4.21385 7.3446 4.21523C7.34409 4.21624 7.34441 4.21564 7.34592 4.2124C7.34739 4.20927 7.34946 4.20475 7.35244 4.19817C7.35852 4.18473 7.36661 4.1666 7.37841 4.14014L8.19155 4.5027ZM7.43463 4.77717L7.4329 4.77568L8.01482 4.10187L8.01655 4.10336L7.43463 4.77717ZM8.11719 4.64723C8.04752 4.77869 7.84862 5.12294 7.2821 6.10385L6.51113 5.65857C7.08562 4.66389 7.27089 4.34286 7.33053 4.23032L8.11719 4.64723ZM7.28191 6.10417C7.31753 6.04261 7.32746 5.96835 7.30914 5.89941L6.44869 6.12809C6.40646 5.96917 6.42882 5.80083 6.51132 5.65825L7.28191 6.10417ZM7.30876 5.89802C7.29045 5.82999 7.24543 5.77048 7.18281 5.73433L6.73769 6.50539C6.59468 6.42283 6.49161 6.2875 6.44907 6.12948L7.30876 5.89802ZM7.18197 5.73385C7.1313 5.70475 7.08202 5.70494 7.04799 5.7141C7.01409 5.72323 6.97062 5.74795 6.94087 5.79979L7.71304 6.24297C7.51903 6.581 7.07565 6.69951 6.73853 6.50587L7.18197 5.73385ZM6.94148 5.79873L7.41807 4.9736L8.18902 5.41889L7.71243 6.24403L6.94148 5.79873ZM7.41834 4.97313C7.54692 4.75114 7.80937 4.64005 8.06112 4.70819L7.82852 5.56758C7.96983 5.60583 8.11712 5.54303 8.18875 5.41936L7.41834 4.97313ZM8.06001 4.70789C8.30975 4.7748 8.48302 5.00111 8.48302 5.25917H7.59271C7.59271 5.40365 7.68969 5.53039 7.82962 5.56787L8.06001 4.70789ZM8.48302 5.25917V7.85316H7.59271V5.25917H8.48302ZM8.48302 7.85316C8.48302 7.80243 8.46423 7.75632 8.43338 7.72103C8.40258 7.68579 8.34823 7.64941 8.27296 7.64446L8.21449 8.53285C7.83975 8.50819 7.59271 8.18175 7.59271 7.85316H8.48302ZM8.26723 7.64412C8.21464 7.64134 8.15039 7.6606 8.10157 7.70934L8.73056 8.33944C8.59002 8.47974 8.40369 8.54289 8.22021 8.53319L8.26723 7.64412ZM8.10129 7.70962C8.05905 7.75187 8.03557 7.80975 8.03557 7.86778H8.92588C8.92588 8.04459 8.85646 8.21354 8.73084 8.33916L8.10129 7.70962ZM8.03557 7.86778V6.17128H8.92588V7.86778H8.03557ZM8.03557 6.17128C8.03557 5.85605 8.29111 5.60051 8.60634 5.60051V6.49082C8.78281 6.49082 8.92588 6.34776 8.92588 6.17128H8.03557ZM8.60634 5.60051C8.92139 5.60051 9.17711 5.8558 9.17711 6.17128H8.2868C8.2868 6.34786 8.43004 6.49082 8.60634 6.49082V5.60051ZM9.17711 6.1713L9.17703 8.25341L8.28672 8.25338L8.2868 6.17127L9.17711 6.1713ZM9.17703 8.2534C9.17703 8.12962 9.07707 8.02966 8.9533 8.02966V8.91997C8.58537 8.91997 8.28672 8.62133 8.28672 8.2534H9.17703ZM8.9533 8.02966C8.89536 8.02966 8.83776 8.05301 8.7956 8.09509L9.42453 8.72524C9.29884 8.85069 9.12985 8.91997 8.9533 8.91997V8.02966ZM8.795 8.09569C8.75291 8.13785 8.72957 8.19546 8.72957 8.2534H9.61988C9.61988 8.42995 9.5506 8.59894 9.42513 8.72464L8.795 8.09569ZM8.72957 8.2534V6.17128H9.61988V8.2534H8.72957ZM8.72957 6.17128C8.72957 5.85624 8.98485 5.60051 9.30034 5.60051V6.49082C9.47692 6.49082 9.61988 6.34757 9.61988 6.17128H8.72957ZM9.30034 5.60051C9.61539 5.60051 9.87111 5.85579 9.87111 6.17128H8.9808C8.9808 6.34786 9.12404 6.49082 9.30034 6.49082V5.60051ZM9.87111 6.1713L9.87103 7.84829L8.98072 7.84825L8.9808 6.17126L9.87111 6.1713ZM9.87103 7.84827V7.86778H8.98072V7.84827H9.87103ZM9.87103 7.86778C9.87103 7.74371 9.77086 7.64396 9.64738 7.64396V8.53427C9.27959 8.53427 8.98072 8.23585 8.98072 7.86778H9.87103ZM9.64738 7.64396C9.58823 7.64396 9.53096 7.66802 9.48996 7.70886L10.1183 8.33959C9.99332 8.46413 9.82499 8.53427 9.64738 8.53427V7.64396ZM9.48967 7.70915C9.44709 7.75166 9.42365 7.80973 9.42365 7.86769H10.314C10.314 8.04443 10.2446 8.21357 10.1186 8.33929L9.48967 7.70915ZM9.42365 7.86769V6.17119H10.314V7.86769H9.42365ZM9.42365 6.17119C9.42365 5.85614 9.67893 5.60042 9.99442 5.60042V6.49073C10.171 6.49073 10.314 6.34749 10.314 6.17119H9.42365ZM9.99442 5.60042C10.3095 5.60042 10.5652 5.8557 10.5652 6.17119H9.67488C9.67488 6.34777 9.81813 6.49073 9.99442 6.49073V5.60042ZM10.5652 6.17125L10.565 7.45181L9.67473 7.4517L9.67488 6.17114L10.5652 6.17125ZM10.565 7.45175C10.565 7.32827 10.4653 7.2281 10.3412 7.2281V8.11841C9.97316 8.11841 9.67473 7.81955 9.67473 7.45175H10.565ZM10.3412 7.2281C10.2828 7.2281 10.2252 7.25174 10.1834 7.29353L10.8123 7.92367C10.6871 8.04868 10.5184 8.11841 10.3412 8.11841V7.2281ZM10.1831 7.29383C10.1407 7.33622 10.1174 7.39407 10.1174 7.45175H11.0077C11.0077 7.62806 10.9387 7.79729 10.8126 7.92337L10.1831 7.29383ZM10.1174 7.45174L10.1175 4.85614L11.0078 4.85617L11.0077 7.45177L10.1174 7.45174ZM10.1175 4.85616C10.1175 4.19581 9.63735 3.73129 9.13428 3.73129V2.84098C10.2064 2.84098 11.0078 3.78525 11.0078 4.85616H10.1175ZM8.70625 3.16384L8.70626 3.16381L9.56231 3.4084L9.56231 3.40843L8.70625 3.16384Z" fill="#4CAF4F" mask="url(#path-1-inside-1_212_1413)"/>
</g>
<g id="Vector_2">
<mask id="path-3-inside-2_212_1413" fill="white">
<path d="M5.40587 9.72833L7.22869 8.63481C7.44846 8.50283 7.73124 8.55891 7.87219 8.76256C7.92364 8.83673 7.94991 8.92318 7.954 9.0112C8.02196 8.97573 8.0959 8.95646 8.17117 8.95646C8.20971 8.95646 8.24841 8.96125 8.28664 8.97077C8.40911 9.00137 8.51231 9.0779 8.57721 9.18613C8.64218 9.29452 8.66114 9.42155 8.63054 9.54388C8.6023 9.65707 8.53348 9.75233 8.43775 9.81769C8.50469 9.85718 8.56242 9.91106 8.60348 9.97965C8.66846 10.088 8.68741 10.215 8.65689 10.3375C8.62629 10.4598 8.54976 10.563 8.44137 10.628L8.44074 10.6284C8.5065 10.6678 8.56321 10.7212 8.6038 10.7887C8.66885 10.8971 8.68781 11.0242 8.65721 11.1466C8.62653 11.269 8.55 11.3722 8.44177 11.4372L6.21608 12.7724C5.80068 13.0215 5.32047 13.1075 4.86409 13.0143C4.40363 12.9202 4.02229 12.6556 3.79042 12.269C3.42347 11.6575 3.47846 10.9349 3.93365 10.3834C3.9545 10.3582 3.97503 10.3326 3.99367 10.306C4.01341 10.2779 4.03646 10.2449 4.04432 10.2336C4.09144 10.1494 4.86026 8.76423 4.86018 8.76439C4.93781 8.6243 5.08333 8.545 5.23341 8.54508C5.30341 8.54508 5.37444 8.56231 5.43997 8.59865C5.5191 8.64286 5.58556 8.70728 5.63205 8.78491C5.72762 8.9442 5.731 9.14352 5.64102 9.30484L5.40587 9.72833ZM5.41681 8.91405C5.39242 8.87338 5.35891 8.84097 5.31793 8.81801C5.23322 8.77113 5.12656 8.80165 5.07992 8.88605C4.52979 9.87714 4.34226 10.2149 4.26989 10.3351L4.27154 10.3355C4.26548 10.3556 4.26548 10.3556 4.19925 10.4502C4.17676 10.4823 4.1523 10.513 4.12736 10.5433C3.73595 11.0175 3.6905 11.6143 4.00568 12.1398C4.20091 12.4653 4.52357 12.6885 4.91425 12.7682C5.30919 12.8485 5.72545 12.7738 6.08674 12.557L8.31263 11.2217C8.36345 11.1913 8.39931 11.1429 8.41363 11.0856C8.42795 11.0283 8.41906 10.9688 8.38854 10.918C8.32577 10.8133 8.18945 10.779 8.08484 10.842L6.98677 11.5007C6.92731 11.5365 6.85007 11.5173 6.81443 11.4577C6.77872 11.3983 6.79799 11.3211 6.85746 11.2854L7.9556 10.6266L8.31224 10.4127C8.36305 10.3821 8.399 10.3338 8.41332 10.2766C8.42763 10.2192 8.41875 10.1596 8.38823 10.1089C8.32538 10.0042 8.18906 9.97013 8.08453 10.0329L6.62974 10.9056C6.57012 10.9414 6.49311 10.9221 6.4574 10.8626C6.42169 10.8031 6.44104 10.726 6.50043 10.6902L8.28589 9.61917C8.33671 9.58865 8.37258 9.54035 8.38689 9.48301C8.40121 9.42575 8.39232 9.3662 8.36188 9.31539C8.33144 9.26466 8.28306 9.22879 8.22572 9.21447C8.16806 9.20016 8.10876 9.20905 8.0581 9.23941L7.72758 9.43771C7.7275 9.43771 7.7275 9.43778 7.72742 9.43778H7.72734L6.27264 10.3105C6.21302 10.3464 6.13593 10.327 6.1003 10.2675C6.06459 10.208 6.08394 10.1308 6.14333 10.0951L7.59811 9.22242C7.64892 9.1919 7.68487 9.14352 7.69918 9.08634C7.71492 9.02357 7.70296 8.95939 7.66567 8.90558C7.60102 8.81206 7.46274 8.7872 7.35789 8.85021L5.13361 10.1846C5.08492 10.2137 5.02254 10.2066 4.98172 10.1672C4.94082 10.1277 4.93161 10.0656 4.95915 10.016L5.42166 9.1827C5.46807 9.0994 5.46626 8.99652 5.41678 8.91408L5.41681 8.91405Z"/>
</mask>
<path d="M5.40587 9.72833L7.22869 8.63481C7.44846 8.50283 7.73124 8.55891 7.87219 8.76256C7.92364 8.83673 7.94991 8.92318 7.954 9.0112C8.02196 8.97573 8.0959 8.95646 8.17117 8.95646C8.20971 8.95646 8.24841 8.96125 8.28664 8.97077C8.40911 9.00137 8.51231 9.0779 8.57721 9.18613C8.64218 9.29452 8.66114 9.42155 8.63054 9.54388C8.6023 9.65707 8.53348 9.75233 8.43775 9.81769C8.50469 9.85718 8.56242 9.91106 8.60348 9.97965C8.66846 10.088 8.68741 10.215 8.65689 10.3375C8.62629 10.4598 8.54976 10.563 8.44137 10.628L8.44074 10.6284C8.5065 10.6678 8.56321 10.7212 8.6038 10.7887C8.66885 10.8971 8.68781 11.0242 8.65721 11.1466C8.62653 11.269 8.55 11.3722 8.44177 11.4372L6.21608 12.7724C5.80068 13.0215 5.32047 13.1075 4.86409 13.0143C4.40363 12.9202 4.02229 12.6556 3.79042 12.269C3.42347 11.6575 3.47846 10.9349 3.93365 10.3834C3.9545 10.3582 3.97503 10.3326 3.99367 10.306C4.01341 10.2779 4.03646 10.2449 4.04432 10.2336C4.09144 10.1494 4.86026 8.76423 4.86018 8.76439C4.93781 8.6243 5.08333 8.545 5.23341 8.54508C5.30341 8.54508 5.37444 8.56231 5.43997 8.59865C5.5191 8.64286 5.58556 8.70728 5.63205 8.78491C5.72762 8.9442 5.731 9.14352 5.64102 9.30484L5.40587 9.72833ZM5.41681 8.91405C5.39242 8.87338 5.35891 8.84097 5.31793 8.81801C5.23322 8.77113 5.12656 8.80165 5.07992 8.88605C4.52979 9.87714 4.34226 10.2149 4.26989 10.3351L4.27154 10.3355C4.26548 10.3556 4.26548 10.3556 4.19925 10.4502C4.17676 10.4823 4.1523 10.513 4.12736 10.5433C3.73595 11.0175 3.6905 11.6143 4.00568 12.1398C4.20091 12.4653 4.52357 12.6885 4.91425 12.7682C5.30919 12.8485 5.72545 12.7738 6.08674 12.557L8.31263 11.2217C8.36345 11.1913 8.39931 11.1429 8.41363 11.0856C8.42795 11.0283 8.41906 10.9688 8.38854 10.918C8.32577 10.8133 8.18945 10.779 8.08484 10.842L6.98677 11.5007C6.92731 11.5365 6.85007 11.5173 6.81443 11.4577C6.77872 11.3983 6.79799 11.3211 6.85746 11.2854L7.9556 10.6266L8.31224 10.4127C8.36305 10.3821 8.399 10.3338 8.41332 10.2766C8.42763 10.2192 8.41875 10.1596 8.38823 10.1089C8.32538 10.0042 8.18906 9.97013 8.08453 10.0329L6.62974 10.9056C6.57012 10.9414 6.49311 10.9221 6.4574 10.8626C6.42169 10.8031 6.44104 10.726 6.50043 10.6902L8.28589 9.61917C8.33671 9.58865 8.37258 9.54035 8.38689 9.48301C8.40121 9.42575 8.39232 9.3662 8.36188 9.31539C8.33144 9.26466 8.28306 9.22879 8.22572 9.21447C8.16806 9.20016 8.10876 9.20905 8.0581 9.23941L7.72758 9.43771C7.7275 9.43771 7.7275 9.43778 7.72742 9.43778H7.72734L6.27264 10.3105C6.21302 10.3464 6.13593 10.327 6.1003 10.2675C6.06459 10.208 6.08394 10.1308 6.14333 10.0951L7.59811 9.22242C7.64892 9.1919 7.68487 9.14352 7.69918 9.08634C7.71492 9.02357 7.70296 8.95939 7.66567 8.90558C7.60102 8.81206 7.46274 8.7872 7.35789 8.85021L5.13361 10.1846C5.08492 10.2137 5.02254 10.2066 4.98172 10.1672C4.94082 10.1277 4.93161 10.0656 4.95915 10.016L5.42166 9.1827C5.46807 9.0994 5.46626 8.99652 5.41678 8.91408L5.41681 8.91405Z" fill="#4CAF4F"/>
<path d="M5.40587 9.72833L5.63488 10.1101L4.21018 10.9647L5.01669 9.51223L5.40587 9.72833ZM7.22869 8.63481L7.45788 9.01644L7.45769 9.01655L7.22869 8.63481ZM7.87219 8.76256L7.5064 9.01625L7.50616 9.01591L7.87219 8.76256ZM7.954 9.0112L8.15999 9.40583L7.54169 9.72857L7.50932 9.03186L7.954 9.0112ZM8.28664 8.97077L8.39419 8.5388L8.39454 8.53889L8.28664 8.97077ZM8.57721 9.18613L8.95899 8.9572L8.95902 8.95726L8.57721 9.18613ZM8.63054 9.54388L8.19862 9.43613L8.19869 9.43585L8.63054 9.54388ZM8.43775 9.81769L8.21158 10.2011L7.60812 9.84514L8.18673 9.45006L8.43775 9.81769ZM8.60348 9.97965L8.22167 10.2085L8.22153 10.2083L8.60348 9.97965ZM8.65689 10.3375L9.08884 10.4451L9.08874 10.4455L8.65689 10.3375ZM8.44137 10.628L8.2054 10.2505L8.21227 10.2464L8.44137 10.628ZM8.44074 10.6284L8.21191 11.0103L7.58806 10.6364L8.20481 10.2509L8.44074 10.6284ZM8.6038 10.7887L8.98539 10.5595L8.98549 10.5597L8.6038 10.7887ZM8.65721 11.1466L9.08909 11.2545L9.08901 11.2549L8.65721 11.1466ZM8.44177 11.4372L8.67091 11.8189L8.67077 11.8189L8.44177 11.4372ZM6.21608 12.7724L6.44509 13.1542L6.44502 13.1542L6.21608 12.7724ZM4.86409 13.0143L4.77501 13.4505L4.77499 13.4505L4.86409 13.0143ZM3.79042 12.269L4.17213 12.04L4.17216 12.04L3.79042 12.269ZM3.93365 10.3834L3.59034 10.1L3.5908 10.0995L3.93365 10.3834ZM3.99367 10.306L3.62918 10.0505L3.62951 10.05L3.99367 10.306ZM4.04432 10.2336L4.43276 10.451L4.42225 10.4698L4.40997 10.4875L4.04432 10.2336ZM4.86018 8.76439L5.24954 8.98017L4.46202 8.56531L4.86018 8.76439ZM5.23341 8.54508V8.99024H5.23317L5.23341 8.54508ZM5.43997 8.59865L5.65587 8.20936L5.65707 8.21003L5.43997 8.59865ZM5.63205 8.78491L5.25033 9.01394L5.25013 9.0136L5.63205 8.78491ZM5.64102 9.30484L5.25183 9.08874L5.25226 9.08798L5.64102 9.30484ZM5.41681 8.91405L5.79859 8.68513L5.95299 8.94263L5.77209 9.18225L5.41681 8.91405ZM5.31793 8.81801L5.53348 8.42851L5.53557 8.42968L5.31793 8.81801ZM5.07992 8.88605L5.46955 9.10135L5.46914 9.10209L5.07992 8.88605ZM4.26989 10.3351L4.16678 10.7681L3.57444 10.6271L3.88853 10.1055L4.26989 10.3351ZM4.27154 10.3355L4.37465 9.90243L4.83377 10.0117L4.69783 10.4637L4.27154 10.3355ZM4.19925 10.4502L4.56396 10.7055L4.56347 10.7062L4.19925 10.4502ZM4.12736 10.5433L4.47101 10.8263L4.47068 10.8267L4.12736 10.5433ZM4.00568 12.1398L3.62393 12.3688L3.62392 12.3688L4.00568 12.1398ZM4.91425 12.7682L4.82555 13.2044L4.82521 13.2044L4.91425 12.7682ZM6.08674 12.557L5.85771 12.1753L5.85774 12.1753L6.08674 12.557ZM8.31263 11.2217L8.08363 10.84L8.08386 10.8399L8.31263 11.2217ZM8.41363 11.0856L7.98173 10.9778L7.98177 10.9776L8.41363 11.0856ZM8.38854 10.918L8.00693 11.1472L8.00682 11.147L8.38854 10.918ZM8.08484 10.842L8.3145 11.2233L8.31385 11.2237L8.08484 10.842ZM6.98677 11.5007L6.7576 11.1191L6.75776 11.119L6.98677 11.5007ZM6.81443 11.4577L7.19606 11.2285L7.19642 11.2291L6.81443 11.4577ZM6.85746 11.2854L6.62828 10.9037L6.62846 10.9036L6.85746 11.2854ZM7.9556 10.6266L8.18461 11.0083L8.1846 11.0083L7.9556 10.6266ZM8.31224 10.4127L8.54145 10.7943L8.54125 10.7944L8.31224 10.4127ZM8.41332 10.2766L8.84522 10.3844L8.84515 10.3847L8.41332 10.2766ZM8.38823 10.1089L8.00677 10.3384L8.00656 10.338L8.38823 10.1089ZM8.08453 10.0329L8.31368 10.4145L8.31353 10.4146L8.08453 10.0329ZM6.62974 10.9056L6.40064 10.5239L6.40074 10.5239L6.62974 10.9056ZM6.4574 10.8626L6.83903 10.6334L6.83903 10.6334L6.4574 10.8626ZM6.50043 10.6902L6.27103 10.3088L6.27143 10.3085L6.50043 10.6902ZM8.28589 9.61917L8.5151 10.0008L8.51489 10.0009L8.28589 9.61917ZM8.38689 9.48301L7.95499 9.37519L7.95503 9.37505L8.38689 9.48301ZM8.36188 9.31539L8.74359 9.08636L8.74375 9.08662L8.36188 9.31539ZM8.22572 9.21447L8.33299 8.78244L8.33354 8.78257L8.22572 9.21447ZM8.0581 9.23941L7.82908 8.85768L7.82924 8.85759L8.0581 9.23941ZM7.72758 9.43771L7.9566 9.81943L7.85087 9.88286H7.72758V9.43771ZM7.72734 9.43778L7.49833 9.05606L7.60405 8.99263H7.72734V9.43778ZM6.27264 10.3105L6.04317 9.92905L6.04363 9.92877L6.27264 10.3105ZM6.1003 10.2675L6.48193 10.0383L6.48229 10.0389L6.1003 10.2675ZM6.14333 10.0951L5.91393 9.71364L5.91433 9.7134L6.14333 10.0951ZM7.59811 9.22242L7.82731 9.60403L7.82711 9.60415L7.59811 9.22242ZM7.69918 9.08634L7.26735 8.97824L7.26738 8.97812L7.69918 9.08634ZM7.66567 8.90558L7.29979 9.15914L7.2995 9.15873L7.66567 8.90558ZM7.35789 8.85021L7.58717 9.23177L7.58689 9.23194L7.35789 8.85021ZM5.13361 10.1846L5.36262 10.5663L5.362 10.5667L5.13361 10.1846ZM4.98172 10.1672L4.67255 10.4875L4.67254 10.4875L4.98172 10.1672ZM4.95915 10.016L4.56987 9.80008L4.56992 9.79998L4.95915 10.016ZM5.42166 9.1827L5.03244 8.96667L5.03279 8.96604L5.42166 9.1827ZM5.41678 8.91408L5.03509 9.14315L4.88052 8.8856L5.0615 8.64587L5.41678 8.91408ZM5.17687 9.34659L6.99969 8.25308L7.45769 9.01655L5.63488 10.1101L5.17687 9.34659ZM6.9995 8.25319C7.40897 8.00728 7.95619 8.10174 8.23822 8.50921L7.50616 9.01591C7.50563 9.01514 7.5031 9.0114 7.49334 9.00946C7.48332 9.00747 7.47064 9.00877 7.45788 9.01644L6.9995 8.25319ZM8.23799 8.50887C8.34203 8.65889 8.39113 8.82808 8.39867 8.99054L7.50932 9.03186C7.50869 9.01827 7.50524 9.01457 7.5064 9.01625L8.23799 8.50887ZM7.74801 8.61657C7.8749 8.55034 8.01909 8.5113 8.17117 8.5113V9.40161C8.1727 9.40161 8.16902 9.40112 8.15999 9.40583L7.74801 8.61657ZM8.17117 8.5113C8.24677 8.5113 8.32157 8.52072 8.39419 8.5388L8.1791 9.40274C8.17526 9.40178 8.17266 9.40161 8.17117 9.40161V8.5113ZM8.39454 8.53889C8.63172 8.59815 8.83339 8.74776 8.95899 8.9572L8.19544 9.41507C8.19287 9.41078 8.19039 9.40841 8.18842 9.40695C8.18646 9.4055 8.18351 9.40384 8.17874 9.40265L8.39454 8.53889ZM8.95902 8.95726C9.08448 9.16656 9.12172 9.41472 9.06239 9.6519L8.19869 9.43585C8.19986 9.43119 8.19979 9.42787 8.19943 9.42543C8.19906 9.42298 8.19811 9.41953 8.1954 9.415L8.95902 8.95726ZM9.06246 9.65163C9.00651 9.87589 8.87008 10.0615 8.68877 10.1853L8.18673 9.45006C8.19235 9.44622 8.19508 9.44298 8.19628 9.44129C8.19738 9.43975 8.19808 9.43829 8.19862 9.43613L9.06246 9.65163ZM8.66392 9.43427C8.78723 9.50701 8.90186 9.6114 8.98543 9.75101L8.22153 10.2083C8.22199 10.2091 8.22212 10.209 8.22106 10.2079C8.21989 10.2068 8.217 10.2043 8.21158 10.2011L8.66392 9.43427ZM8.9853 9.75078C9.11078 9.96012 9.14791 10.2081 9.08884 10.4451L8.22495 10.2298C8.22617 10.2249 8.22609 10.2215 8.22572 10.219C8.22535 10.2165 8.22439 10.2131 8.22167 10.2085L8.9853 9.75078ZM9.08874 10.4455C9.02942 10.6826 8.87976 10.8841 8.67047 11.0097L8.21227 10.2464C8.21679 10.2437 8.21927 10.2411 8.22076 10.239C8.22225 10.237 8.22388 10.2341 8.22504 10.2294L9.08874 10.4455ZM8.6773 11.0055L8.67667 11.0059L8.20481 10.2509L8.20544 10.2506L8.6773 11.0055ZM8.66957 10.2466C8.79066 10.3192 8.903 10.4224 8.98539 10.5595L8.22221 11.018C8.22256 11.0186 8.22256 11.0183 8.22142 11.0172C8.22018 11.016 8.21727 11.0135 8.21191 11.0103L8.66957 10.2466ZM8.98549 10.5597C9.1112 10.7691 9.14835 11.0173 9.08909 11.2545L8.22533 11.0387C8.22653 11.0339 8.22645 11.0305 8.22609 11.0281C8.22573 11.0257 8.2248 11.0223 8.22211 11.0178L8.98549 10.5597ZM9.08901 11.2549C9.02963 11.4918 8.88013 11.6932 8.67091 11.8189L8.21263 11.0555C8.21701 11.0529 8.21947 11.0504 8.22099 11.0483C8.22251 11.0463 8.2242 11.0432 8.22541 11.0384L9.08901 11.2549ZM8.67077 11.8189L6.44509 13.1542L5.98707 12.3907L8.21276 11.0555L8.67077 11.8189ZM6.44502 13.1542C5.9384 13.458 5.34523 13.5669 4.77501 13.4505L4.95318 12.5782C5.29571 12.6481 5.66296 12.5851 5.98714 12.3907L6.44502 13.1542ZM4.77499 13.4505C4.19818 13.3326 3.70779 12.9966 3.40867 12.498L4.17216 12.04C4.33678 12.3145 4.60908 12.5079 4.9532 12.5782L4.77499 13.4505ZM3.4087 12.4981C2.94434 11.7241 3.0156 10.7964 3.59034 10.1L4.27697 10.6668C3.94132 11.0734 3.9026 11.5908 4.17213 12.04L3.4087 12.4981ZM3.5908 10.0995C3.60923 10.0772 3.62082 10.0624 3.62918 10.0505L4.35816 10.5616C4.32923 10.6028 4.29977 10.6393 4.2765 10.6674L3.5908 10.0995ZM3.62951 10.05C3.64875 10.0226 3.6713 9.99029 3.67868 9.97967L4.40997 10.4875C4.40162 10.4995 4.37807 10.5333 4.35782 10.5621L3.62951 10.05ZM3.65589 10.0161C3.67894 9.97495 3.88227 9.6088 4.08075 9.25129C4.17978 9.0729 4.27735 8.89715 4.35015 8.766C4.38654 8.70042 4.41675 8.646 4.43786 8.60798C4.44841 8.58897 4.45669 8.57405 4.46233 8.56389C4.46515 8.55881 4.46731 8.55492 4.46877 8.55229C4.4695 8.55098 4.47006 8.54998 4.47043 8.5493C4.47062 8.54896 4.47077 8.54868 4.47088 8.54849C4.47093 8.54839 4.471 8.54828 4.47106 8.54817C4.47109 8.54811 4.47117 8.54797 4.47122 8.54787C4.47138 8.5476 5.0683 8.37088 5.25833 8.96347L4.46202 8.56531C4.65205 9.1579 5.24897 8.98119 5.24911 8.98094C5.24915 8.98086 5.24922 8.98075 5.24923 8.98073C5.24924 8.98071 5.24923 8.98072 5.24919 8.98079C5.24912 8.98093 5.24899 8.98115 5.24881 8.98148C5.24845 8.98213 5.24791 8.98311 5.24718 8.98441C5.24573 8.98702 5.24358 8.99091 5.24076 8.99599C5.23512 9.00614 5.22684 9.02105 5.21629 9.04006C5.19518 9.07809 5.16497 9.13252 5.12857 9.19809C5.05577 9.32925 4.9582 9.50502 4.85915 9.68343C4.66146 10.0395 4.45682 10.408 4.43276 10.451L3.65589 10.0161ZM4.47081 8.54861C4.63018 8.26104 4.92846 8.09976 5.23364 8.09993L5.23317 8.99024C5.23634 8.99024 5.23908 8.98949 5.2417 8.98798C5.24495 8.98611 5.24794 8.98305 5.24954 8.98017L4.47081 8.54861ZM5.23341 8.09993C5.37681 8.09993 5.52243 8.13535 5.65587 8.20936L5.22406 8.98794C5.22645 8.98927 5.23002 8.99024 5.23341 8.99024V8.09993ZM5.65707 8.21003C5.80396 8.29209 5.92735 8.41156 6.01397 8.55623L5.25013 9.0136C5.24378 9.00299 5.23423 8.99363 5.22286 8.98728L5.65707 8.21003ZM6.01377 8.55588C6.19084 8.85101 6.19786 9.22039 6.02978 9.5217L5.25226 9.08798C5.26415 9.06666 5.2644 9.03738 5.25033 9.01394L6.01377 8.55588ZM6.0302 9.52093L5.79506 9.94442L5.01669 9.51223L5.25183 9.08874L6.0302 9.52093ZM5.03502 9.14297C5.05067 9.16906 5.07384 9.19151 5.1003 9.20634L5.53557 8.42968C5.64399 8.49044 5.73418 8.5777 5.79859 8.68513L5.03502 9.14297ZM5.10239 9.2075C5.2316 9.279 5.39651 9.23351 5.46955 9.10135L4.69029 8.67074C4.8566 8.36978 5.23484 8.26325 5.53347 8.42851L5.10239 9.2075ZM5.46914 9.10209C4.92271 10.0865 4.72896 10.4356 4.65125 10.5647L3.88853 10.1055C3.95555 9.99415 4.13687 9.66778 4.6907 8.67L5.46914 9.10209ZM4.373 9.90204L4.37465 9.90243L4.16843 10.7685L4.16678 10.7681L4.373 9.90204ZM4.69783 10.4637C4.6972 10.4658 4.68905 10.4946 4.67481 10.5271C4.66047 10.5599 4.64506 10.5856 4.63462 10.6022C4.61816 10.6283 4.59276 10.6643 4.56395 10.7055L3.83455 10.195C3.85145 10.1708 3.86292 10.1544 3.87136 10.1422C3.87548 10.1363 3.87823 10.1322 3.88007 10.1295C3.88198 10.1267 3.88214 10.1263 3.8813 10.1277C3.8799 10.1299 3.86977 10.146 3.8592 10.1701C3.85385 10.1823 3.84999 10.1929 3.8474 10.2006C3.84624 10.2041 3.84544 10.2067 3.84514 10.2076C3.84491 10.2084 3.84477 10.2089 3.84525 10.2073L4.69783 10.4637ZM4.56347 10.7062C4.53134 10.7519 4.49857 10.7928 4.47101 10.8263L3.78371 10.2603C3.80603 10.2332 3.82218 10.2126 3.83504 10.1943L4.56347 10.7062ZM4.47068 10.8267C4.19874 11.1561 4.16967 11.5478 4.38743 11.9109L3.62392 12.3688C3.21133 11.6809 3.27316 10.8789 3.78404 10.2599L4.47068 10.8267ZM4.38743 11.9108C4.51487 12.1233 4.72792 12.2758 5.0033 12.3321L4.82521 13.2044C4.31921 13.1011 3.88694 12.8073 3.62393 12.3688L4.38743 11.9108ZM5.00296 12.332C5.28386 12.3891 5.58731 12.3376 5.85771 12.1753L6.31578 12.9387C5.8636 13.2101 5.33452 13.3079 4.82555 13.2044L5.00296 12.332ZM5.85774 12.1753L8.08363 10.84L8.54163 11.6035L6.31574 12.9388L5.85774 12.1753ZM8.08386 10.8399C8.03343 10.8701 7.9961 10.9202 7.98173 10.9778L8.84553 11.1934C8.80253 11.3656 8.69346 11.5125 8.5414 11.6036L8.08386 10.8399ZM7.98177 10.9776C7.96735 11.0353 7.9768 11.097 8.00693 11.1472L8.77015 10.6888C8.86132 10.8405 8.88854 11.0213 8.84549 11.1935L7.98177 10.9776ZM8.00682 11.147C8.07 11.2523 8.20712 11.288 8.3145 11.2233L7.85518 10.4606C8.17178 10.27 8.58153 10.3744 8.77026 10.6889L8.00682 11.147ZM8.31385 11.2237L7.21579 11.8825L6.75776 11.119L7.85583 10.4602L8.31385 11.2237ZM7.21595 11.8824C6.94626 12.0443 6.59492 11.9578 6.43245 11.6863L7.19642 11.2291C7.10521 11.0767 6.90836 11.0286 6.7576 11.1191L7.21595 11.8824ZM6.4328 11.6869C6.27049 11.4166 6.35811 11.066 6.62828 10.9037L7.08664 11.667C7.23788 11.5762 7.28696 11.3799 7.19606 11.2285L6.4328 11.6869ZM6.62846 10.9036L7.7266 10.2449L8.1846 11.0083L7.08646 11.6671L6.62846 10.9036ZM7.7266 10.2449L8.08324 10.0309L8.54125 10.7944L8.18461 11.0083L7.7266 10.2449ZM8.08304 10.031C8.03346 10.0608 7.99602 10.1104 7.98149 10.1685L8.84515 10.3847C8.80199 10.5571 8.69265 10.7035 8.54145 10.7943L8.08304 10.031ZM7.98142 10.1688C7.96712 10.226 7.97634 10.2878 8.00677 10.3384L8.76968 9.87941C8.86115 10.0315 8.88815 10.2124 8.84522 10.3844L7.98142 10.1688ZM8.00656 10.338C8.0701 10.4438 8.20717 10.4785 8.31368 10.4145L7.85537 9.65126C8.17096 9.46176 8.58065 9.56453 8.76989 9.87977L8.00656 10.338ZM8.31353 10.4146L6.85875 11.2874L6.40074 10.5239L7.85553 9.65116L8.31353 10.4146ZM6.85885 11.2873C6.58815 11.4498 6.23785 11.3617 6.07577 11.0918L6.83903 10.6334C6.74838 10.4824 6.55209 10.433 6.40064 10.5239L6.85885 11.2873ZM6.07577 11.0918C5.91326 10.8211 6.00152 10.4708 6.27103 10.3088L6.72983 11.0717C6.88057 10.9811 6.93013 10.7851 6.83903 10.6334L6.07577 11.0918ZM6.27143 10.3085L8.05689 9.23743L8.51489 10.0009L6.72943 11.072L6.27143 10.3085ZM8.05669 9.23756C8.0069 9.26746 7.96943 9.31733 7.95499 9.37519L8.81879 9.59083C8.77572 9.76337 8.66651 9.90984 8.5151 10.0008L8.05669 9.23756ZM7.95503 9.37505C7.94061 9.43269 7.95008 9.49421 7.98001 9.54416L8.74375 9.08662C8.83456 9.2382 8.8618 9.4188 8.81876 9.59098L7.95503 9.37505ZM7.98016 9.54442C8.01036 9.59476 8.06041 9.63202 8.1179 9.64637L8.33354 8.78257C8.50571 8.82556 8.65251 8.93455 8.74359 9.08636L7.98016 9.54442ZM8.11845 9.64651C8.17485 9.66052 8.23643 9.65151 8.28696 9.62123L7.82924 8.85759C7.98108 8.76658 8.16127 8.7398 8.33299 8.78244L8.11845 9.64651ZM8.28712 9.62113L7.9566 9.81943L7.49856 9.05598L7.82908 8.85768L8.28712 9.62113ZM7.72758 9.88286C7.74619 9.88286 7.76578 9.88169 7.78615 9.87899C7.80656 9.87628 7.8271 9.87211 7.84758 9.86638C7.86808 9.86064 7.88765 9.85357 7.90621 9.84544C7.92473 9.83732 7.94151 9.82847 7.95656 9.81944C7.9864 9.80153 8.00844 9.78352 8.02203 9.77153C8.02882 9.76554 8.03412 9.76049 8.03731 9.7574C8.04022 9.75458 8.04267 9.75212 8.04226 9.75253C8.04226 9.75253 8.04226 9.75253 8.04226 9.75253C8.04225 9.75254 8.04225 9.75254 8.04224 9.75255C8.04223 9.75256 8.04221 9.75258 8.04218 9.75261C8.04214 9.75266 8.04205 9.75274 8.04195 9.75284C8.04176 9.75303 8.04143 9.75336 8.04103 9.75376C8.04024 9.75454 8.03893 9.75583 8.0373 9.75741C8.0341 9.76051 8.02879 9.76557 8.022 9.77156C8.0084 9.78356 7.98635 9.80158 7.9565 9.81949C7.94144 9.82852 7.92466 9.83738 7.90613 9.8455C7.88756 9.85364 7.86798 9.86071 7.84748 9.86645C7.82699 9.87219 7.80644 9.87636 7.78602 9.87907C7.76564 9.88177 7.74604 9.88294 7.72742 9.88294V8.99263C7.70881 8.99263 7.68922 8.9938 7.66886 8.9965C7.64844 8.99921 7.6279 9.00338 7.60742 9.00911C7.58692 9.01485 7.56735 9.02192 7.54879 9.03005C7.53027 9.03817 7.51349 9.04703 7.49844 9.05605C7.4686 9.07396 7.44656 9.09197 7.43297 9.10396C7.42618 9.10995 7.42088 9.115 7.41769 9.11809C7.41478 9.12091 7.41233 9.12338 7.41274 9.12296C7.41274 9.12296 7.41274 9.12296 7.41274 9.12296C7.41275 9.12296 7.41275 9.12295 7.41276 9.12294C7.41277 9.12293 7.41279 9.12291 7.41282 9.12289C7.41286 9.12284 7.41295 9.12275 7.41305 9.12265C7.41324 9.12246 7.41357 9.12213 7.41397 9.12173C7.41476 9.12095 7.41607 9.11966 7.4177 9.11808C7.4209 9.11498 7.42621 9.10992 7.433 9.10393C7.4466 9.09193 7.46865 9.07391 7.4985 9.056C7.51356 9.04697 7.53034 9.03811 7.54887 9.02999C7.56744 9.02185 7.58702 9.01478 7.60752 9.00904C7.62801 9.0033 7.64857 8.99913 7.66898 8.99642C7.68936 8.99372 7.70896 8.99255 7.72758 8.99255V9.88286ZM7.72742 9.88294H7.72734V8.99263H7.72742V9.88294ZM7.95635 9.81951L6.50165 10.6922L6.04363 9.92877L7.49833 9.05606L7.95635 9.81951ZM6.50211 10.692C6.23143 10.8548 5.88037 10.7669 5.71832 10.4961L6.48229 10.0389C6.39149 9.88717 6.19461 9.83795 6.04317 9.92905L6.50211 10.692ZM5.71867 10.4967C5.55615 10.226 5.64441 9.8757 5.91393 9.71364L6.37273 10.4766C6.52347 10.386 6.57303 10.19 6.48193 10.0383L5.71867 10.4967ZM5.91433 9.7134L7.36911 8.84068L7.82711 9.60415L6.37233 10.4769L5.91433 9.7134ZM7.3689 8.84081C7.31933 8.87058 7.28188 8.9202 7.26735 8.97824L8.13101 9.19444C8.08785 9.36685 7.97851 9.51322 7.82731 9.60403L7.3689 8.84081ZM7.26738 8.97812C7.2514 9.04189 7.26522 9.10926 7.29979 9.15914L8.03156 8.65203C8.1407 8.80951 8.17843 9.00525 8.13098 9.19456L7.26738 8.97812ZM7.2995 9.15873C7.34266 9.22115 7.40207 9.24905 7.44805 9.25732C7.49412 9.26561 7.54344 9.25805 7.58717 9.23177L7.1286 8.46864C7.41027 8.29939 7.818 8.34311 8.03185 8.65244L7.2995 9.15873ZM7.58689 9.23194L5.36261 10.5663L4.9046 9.80284L7.12888 8.46847L7.58689 9.23194ZM5.362 10.5667C5.14126 10.6986 4.85848 10.667 4.67255 10.4875L5.29089 9.84691C5.18661 9.74625 5.02858 9.72874 4.90522 9.80247L5.362 10.5667ZM4.67254 10.4875C4.48644 10.3078 4.44469 10.0257 4.56987 9.80008L5.34842 10.2319C5.41853 10.1055 5.39519 9.94761 5.2909 9.84692L4.67254 10.4875ZM4.56992 9.79998L5.03244 8.96667L5.81088 9.39873L5.34837 10.232L4.56992 9.79998ZM5.03279 8.96604C5.00104 9.02303 5.00326 9.09011 5.03509 9.14315L5.79847 8.685C5.92926 8.90292 5.9351 9.17577 5.81054 9.39936L5.03279 8.96604ZM5.0615 8.64587L5.06152 8.64584L5.77209 9.18225L5.77207 9.18229L5.0615 8.64587Z" fill="#4CAF4F" mask="url(#path-3-inside-2_212_1413)"/>
</g>
<path id="Vector_3" d="M9.73103 8.98515C9.69629 8.98544 9.66137 8.98984 9.62691 8.99846L9.73103 8.98515ZM9.73103 8.98515C9.73169 8.97559 9.73253 8.96601 9.73356 8.95642L9.73103 8.98515ZM9.3274 9.99427C9.32739 9.99429 9.32738 9.99431 9.32736 9.99433C9.32736 9.99434 9.32736 9.99434 9.32736 9.99434L9.3274 9.99427ZM9.3274 9.99427L9.3029 9.97954L9.32742 9.99424M9.3274 9.99427L9.32742 9.99424M9.32742 9.99424C9.32796 9.99334 9.3285 9.99245 9.32904 9.99157L9.32742 9.99424ZM11.034 11.3099L11.034 11.31L11.034 11.3099Z" fill="#4CAF4F" stroke="#4CAF4F" stroke-width="0.445155"/>
</g>
</g>
</svg>
