<svg width="17" height="17" viewBox="0 0 17 17" fill="none" xmlns="http://www.w3.org/2000/svg">
<g id="Icon">
<path id="Vector" d="M2.72517 5.89365V6.06059H2.8921H14.9113H15.0782V5.89365V5.14245C15.0782 4.76613 14.9287 4.40522 14.6626 4.13912C14.3965 3.87302 14.0356 3.72352 13.6593 3.72352H4.1441C3.76778 3.72352 3.40687 3.87302 3.14077 4.13912C2.87466 4.40522 2.72517 4.76613 2.72517 5.14245V5.89365ZM15.0782 6.89525V6.72832H14.9113H2.8921H2.72517V6.89525V11.6529C2.72517 12.0292 2.87466 12.3901 3.14077 12.6562C3.40687 12.9223 3.76778 13.0718 4.1441 13.0718H13.6593C14.0356 13.0718 14.3965 12.9223 14.6626 12.6562C14.9287 12.3901 15.0782 12.0292 15.0782 11.6529V6.89525ZM2.05744 5.14245C2.05744 4.58904 2.27728 4.05828 2.66861 3.66696C3.05993 3.27563 3.59068 3.05579 4.1441 3.05579H13.6593C14.2127 3.05579 14.7435 3.27563 15.1348 3.66696C15.5261 4.05828 15.746 4.58904 15.746 5.14245V11.6529C15.746 12.2063 15.5261 12.737 15.1348 13.1283C14.7435 13.5197 14.2127 13.7395 13.6593 13.7395H4.1441C3.59068 13.7395 3.05993 13.5197 2.66861 13.1283C2.27728 12.737 2.05744 12.2063 2.05744 11.6529V5.14245ZM11.4057 10.067H12.9081C12.9966 10.067 13.0816 10.1022 13.1442 10.1648C13.2068 10.2274 13.242 10.3123 13.242 10.4009C13.242 10.4894 13.2068 10.5743 13.1442 10.6369C13.0816 10.6995 12.9966 10.7347 12.9081 10.7347H11.4057C11.3172 10.7347 11.2322 10.6995 11.1696 10.6369C11.107 10.5743 11.0718 10.4894 11.0718 10.4009C11.0718 10.3123 11.107 10.2274 11.1696 10.1648C11.2322 10.1022 11.3172 10.067 11.4057 10.067Z" fill="#4CAF4F" stroke="#4CAF4F" stroke-width="0.333867"/>
</g>
</svg>
