<svg width="17" height="17" viewBox="0 0 17 17" fill="none" xmlns="http://www.w3.org/2000/svg">
<g id="Icon">
<path id="Vector" d="M8.14852 3.83618C6.9562 3.83618 5.98555 4.81571 5.98555 6.01311C5.98555 6.77059 6.37452 7.43942 6.96188 7.82928C6.25247 8.06648 5.63862 8.50982 5.18839 9.0898C4.93947 8.89833 4.66133 8.74435 4.36149 8.63401C4.81617 8.29646 5.1133 7.75422 5.1133 7.14479C5.1133 6.12925 4.29196 5.29791 3.28258 5.29791C2.27319 5.29791 1.45186 6.12925 1.45186 7.14479C1.45186 7.75457 1.74923 8.29706 2.2043 8.63461C0.999511 9.07919 0.139069 10.2432 0.139069 11.613V12.5753C0.139192 12.6486 0.168535 12.7189 0.220562 12.7706C0.272588 12.8224 0.342987 12.8512 0.416344 12.851H4.63807C4.64831 12.8521 4.65854 12.8527 4.66877 12.8526H11.6285C11.6387 12.8527 11.6491 12.8521 11.6592 12.851H15.8813C16.033 12.8503 16.1559 12.7272 16.1563 12.5753V11.613C16.1563 10.2432 15.2973 9.07919 14.0932 8.63449C14.5483 8.29706 14.8456 7.75444 14.8456 7.14467C14.8456 6.12913 14.0243 5.29779 13.0149 5.29779C12.0056 5.29779 11.1842 6.12913 11.1842 7.14467C11.1842 7.7541 11.4814 8.29643 11.9361 8.63389C11.6357 8.74448 11.3574 8.89896 11.1081 9.0909C10.6581 8.51057 10.0451 8.06662 9.33573 7.82928C9.92294 7.43942 10.3121 6.77059 10.3121 6.01311C10.3121 4.81571 9.34091 3.83618 8.14859 3.83618H8.14852ZM8.14852 4.38852C9.04027 4.38852 9.75916 5.11223 9.75916 6.01311C9.75916 6.90694 9.05148 7.62362 8.1696 7.63511C8.16258 7.63511 8.15567 7.63412 8.14852 7.63412C8.14137 7.63412 8.13459 7.63511 8.12744 7.63511C7.24557 7.62376 6.53836 6.90697 6.53836 6.01311C6.53836 5.11211 7.25664 4.38852 8.1484 4.38852H8.14852ZM3.28261 5.85021C3.99017 5.85021 4.561 6.42448 4.561 7.14476C4.561 7.86021 3.99755 8.43202 3.29665 8.43978C3.29197 8.43978 3.28741 8.43929 3.2826 8.43929C3.27792 8.43929 3.27335 8.43978 3.26855 8.43978C2.56765 8.43201 2.0042 7.86008 2.0042 7.14476C2.0042 6.42452 2.57503 5.85021 3.28259 5.85021H3.28261ZM13.0147 5.85021C13.7223 5.85021 14.2931 6.42448 14.2931 7.14476C14.2931 7.86021 13.7297 8.43202 13.0288 8.43978C13.0241 8.43978 13.0195 8.43929 13.0147 8.43929C13.0101 8.43929 13.0055 8.43978 13.0007 8.43978C12.2998 8.43201 11.7363 7.86008 11.7363 7.14476C11.7363 6.42452 12.3072 5.85021 13.0147 5.85021H13.0147ZM8.12737 8.18741C8.1344 8.18753 8.14131 8.1884 8.14846 8.1884C8.15548 8.1884 8.16239 8.18741 8.16954 8.18741C9.93811 8.19875 11.3535 9.62632 11.3535 11.4134L11.3534 12.3001H4.94378V11.4134C4.94378 9.62616 6.35877 8.19877 8.12712 8.18741H8.12737ZM3.26146 8.99275C3.26849 8.99287 3.2754 8.99373 3.28255 8.99373C3.2897 8.99373 3.29648 8.99275 3.30363 8.99275C3.90182 8.99755 4.44775 9.20382 4.88245 9.5489C4.57139 10.0993 4.39151 10.7346 4.39151 11.4135V12.2981H0.69118V11.613C0.69118 10.1606 1.83309 9.00408 3.2614 8.99262L3.26146 8.99275ZM12.9936 8.99275C13.0007 8.99287 13.0075 8.99373 13.0147 8.99373C13.0218 8.99373 13.0286 8.99275 13.0358 8.99275C14.4641 9.00409 15.606 10.1608 15.606 11.6131V12.2981H11.9038L11.9036 11.4135C11.9036 10.7349 11.7243 10.1001 11.4138 9.54988C11.8486 9.20431 12.3949 8.99754 12.9936 8.99275H12.9936Z" fill="#103E13"/>
</g>
</svg>
