<svg width="17" height="10" viewBox="0 0 17 10" fill="none" xmlns="http://www.w3.org/2000/svg">
<g id="Logo" clip-path="url(#clip0_212_1132)">
<path id="Vector" d="M15.3938 1.22257C15.3938 1.23386 15.3938 1.24797 15.3909 1.25644C15.3762 1.36651 15.3762 1.47658 15.385 1.58948C15.3909 1.6177 15.3968 1.64592 15.4203 1.6685C15.4585 1.71083 15.5173 1.70237 15.5409 1.65157C15.5526 1.62617 15.5526 1.60076 15.5467 1.57536C15.5173 1.46811 15.5115 1.35522 15.5085 1.24515C15.5085 1.23951 15.5085 1.23104 15.5085 1.22257C15.5409 1.21975 15.5703 1.21693 15.5967 1.21693C15.6173 1.21411 15.635 1.21128 15.6497 1.20281C15.6938 1.18024 15.6938 1.13226 15.6467 1.10968C15.6291 1.10121 15.6056 1.09839 15.585 1.09839C15.5115 1.10121 15.438 1.10121 15.3644 1.10121C15.338 1.10121 15.3115 1.10404 15.285 1.10686C15.2703 1.10968 15.2527 1.10968 15.2409 1.11815C15.2203 1.12661 15.2086 1.14072 15.2086 1.16048C15.2115 1.18024 15.2203 1.19153 15.2409 1.19999C15.2527 1.20846 15.2674 1.21128 15.2821 1.21128C15.3174 1.21411 15.3556 1.21975 15.3938 1.22257ZM16.2025 1.3524C16.2025 1.35522 16.2054 1.35804 16.2054 1.35804C16.2172 1.43425 16.229 1.50763 16.2378 1.58101C16.2407 1.60641 16.2437 1.62899 16.2613 1.64874C16.2995 1.69672 16.3584 1.69108 16.3848 1.64028C16.3966 1.61488 16.3995 1.58948 16.3936 1.56125C16.376 1.47658 16.3672 1.39191 16.3495 1.31006C16.3378 1.25926 16.3231 1.21128 16.3084 1.16613C16.2995 1.1379 16.279 1.11814 16.2437 1.11532C16.2084 1.10968 16.1819 1.12661 16.1672 1.15201C16.1496 1.17459 16.1349 1.19717 16.1231 1.22257C16.1025 1.26773 16.0849 1.31289 16.0614 1.35522C16.0584 1.36651 16.0555 1.37498 16.0496 1.38344C16.0467 1.3778 16.0437 1.37498 16.0437 1.37498C16.0055 1.30442 15.9702 1.23386 15.932 1.16613C15.9261 1.16048 15.9231 1.15484 15.9202 1.14919C15.9026 1.12379 15.882 1.10968 15.8496 1.10968C15.8202 1.1125 15.7967 1.12944 15.782 1.15484C15.7761 1.16613 15.7761 1.17459 15.7732 1.18588C15.7614 1.2762 15.7467 1.36651 15.735 1.45683C15.7291 1.50763 15.7261 1.55843 15.7261 1.60923C15.7232 1.62052 15.7261 1.63463 15.732 1.64592C15.7379 1.6685 15.7555 1.68261 15.779 1.68543C15.8085 1.68826 15.829 1.67979 15.8379 1.65721C15.8467 1.64028 15.8496 1.62617 15.8526 1.61205C15.8643 1.56125 15.8732 1.51327 15.882 1.46529C15.8879 1.43707 15.8908 1.41449 15.8996 1.38344C15.9055 1.39473 15.9114 1.4032 15.9173 1.41167C15.9437 1.44554 15.9702 1.4794 16.0025 1.50763C16.0349 1.5302 16.0614 1.52738 16.0878 1.50198C16.0937 1.49634 16.0966 1.49352 16.1025 1.48787C16.129 1.44836 16.1613 1.40885 16.1878 1.36933C16.1937 1.36369 16.1966 1.35804 16.2025 1.3524Z" fill="#3A3B7B"/>
<path id="Vector_2" d="M9.42695 1.27798C9.4065 1.33162 9.4026 1.37026 9.41204 1.40238C9.42246 1.44606 9.44952 1.46035 9.48624 1.44925C9.83164 1.36727 10.589 1.59995 10.8694 1.6648C10.9356 1.67842 10.9894 1.59648 10.9442 1.52302C10.8784 1.45188 10.1213 1.1473 9.83247 1.13069C9.71924 1.12455 9.51682 1.09668 9.42695 1.27798Z" fill="#3A3B7B"/>
<path id="Vector_3" d="M12.387 0.292009C12.4238 0.312401 12.4444 0.331853 12.4545 0.353587C12.4697 0.382097 12.4617 0.401822 12.4363 0.411887C12.208 0.518835 11.9041 0.979266 11.7815 1.13806C11.7518 1.17459 11.6832 1.15337 11.6729 1.09329C11.675 1.02537 11.9443 0.525698 12.0946 0.389605C12.1537 0.33647 12.2512 0.232213 12.387 0.292009Z" fill="#3A3B7B"/>
<path id="Vector_4" d="M10.5688 0.0654331C10.613 0.0334431 10.6589 0.0222328 10.6824 0.0430223C11.0269 0.325773 11.2096 0.773534 11.3227 1.18345C11.3269 1.193 11.3272 1.2067 11.3238 1.221C11.3224 1.23322 11.3131 1.24613 11.2983 1.25612C11.2825 1.26714 11.2689 1.2705 11.2626 1.261C11.1116 1.06391 10.2493 0.297061 10.5688 0.0654331Z" fill="#3A3B7B"/>
<path id="Vector_5" d="M3.27408 4.96762C3.35664 4.90863 3.4464 4.85951 3.54138 4.8214C3.64075 4.79414 3.74667 4.79865 3.84313 4.83429C3.93957 4.86994 4.02132 4.93475 4.07597 5.01894C4.12486 5.10291 4.14398 5.19986 4.13049 5.29519C4.11699 5.39049 4.0716 5.47901 4.00112 5.54743C3.94649 5.60288 3.88447 5.65118 3.8167 5.6911C3.51466 5.87838 3.20992 6.05539 2.9052 6.24267C2.84285 6.28954 2.77671 6.33159 2.7074 6.36838C2.60198 6.41884 2.48151 6.43235 2.3668 6.40658C2.2521 6.38084 2.15039 6.3174 2.07925 6.22729C2.02607 6.16348 1.98119 6.0937 1.9456 6.01948C1.65691 5.43712 1.35754 4.85731 1.07955 4.26468C0.951244 4.00815 0.846998 3.7131 0.745424 3.42834C0.701479 3.3456 0.692897 3.24968 0.721507 3.16096C0.750116 3.07224 0.81366 2.99773 0.898621 2.95328C0.983582 2.90883 1.08326 2.89796 1.17645 2.92295C1.26964 2.94795 1.34899 3.00686 1.39763 3.08713C1.54714 3.27783 1.67949 3.48038 1.79324 3.6926C2.08192 4.20568 2.35724 4.71877 2.63523 5.21648C2.65142 5.24398 2.66927 5.27052 2.68869 5.296C2.89793 5.21157 3.09472 5.10117 3.27408 4.96762Z" fill="#3A3B7B"/>
<path id="Vector_6" d="M6.25885 4.78863C5.59863 5.53004 4.49201 5.34276 3.93603 4.38841C3.54042 3.71112 3.47093 2.59257 4.33164 1.88707C4.51543 1.73936 4.73521 1.63875 4.97047 1.5946C5.25893 1.55491 5.55308 1.60375 5.81088 1.73415C6.06867 1.86455 6.27692 2.06982 6.40588 2.32064C6.87632 3.14159 6.8095 4.1883 6.25885 4.78863ZM5.99155 3.05949C5.92141 2.85775 5.7807 2.68552 5.59328 2.57204C5.48722 2.49949 5.35835 2.46422 5.22838 2.47216C5.09838 2.48011 4.97522 2.53078 4.87959 2.61565C4.49737 2.94148 4.41716 3.7137 4.69515 4.17292C4.73059 4.2478 4.78262 4.31434 4.84765 4.3679C4.91268 4.42146 4.98912 4.46074 5.07162 4.48296C5.15411 4.50521 5.24066 4.50988 5.32524 4.49665C5.40982 4.4834 5.49034 4.4526 5.56122 4.40637C5.76842 4.25218 5.92043 4.03987 5.99611 3.79896C6.07181 3.55803 6.06741 3.30047 5.98355 3.06207L5.99155 3.05949Z" fill="#3A3B7B"/>
<path id="Vector_7" d="M8.95325 3.38269C8.88566 3.39664 8.81584 3.39748 8.74789 3.38513C8.67997 3.37279 8.61527 3.34755 8.55766 3.31086C8.50725 3.28318 8.46385 3.24514 8.43058 3.19943C8.39734 3.15373 8.37506 3.10153 8.36535 3.04656C8.35562 2.99162 8.35874 2.93529 8.37441 2.88162C8.3901 2.82795 8.41801 2.77828 8.45609 2.73619C8.52245 2.6516 8.61664 2.59104 8.72339 2.56431C9.0021 2.48667 9.28901 2.43934 9.57875 2.42321C9.64241 2.4161 9.7069 2.42127 9.76844 2.43842C9.82999 2.45558 9.88733 2.48434 9.93714 2.52307C9.98693 2.56178 10.0282 2.60966 10.0584 2.66388C10.0887 2.7181 10.1074 2.77758 10.1133 2.83882C10.1969 3.13962 10.206 3.45502 10.1401 3.75983C9.89951 4.74496 9.07087 5.0836 8.14067 4.76805C7.87956 4.68368 7.65061 4.52648 7.48312 4.31653C7.25971 4.06369 7.10131 3.76405 7.02068 3.4417C6.95536 3.15465 6.96251 2.85679 7.04157 2.57295C7.12061 2.28911 7.26926 2.02753 7.47509 1.81006C7.67043 1.57369 7.92396 1.38767 8.21285 1.26874C8.39539 1.17217 8.609 1.14471 8.8116 1.19178C8.85755 1.20398 8.89927 1.22777 8.93243 1.26067C8.96558 1.29357 8.98896 1.33438 9.00015 1.37888C9.01133 1.42337 9.0099 1.46993 8.99602 1.51372C8.98212 1.55751 8.9563 1.59693 8.92119 1.62791C8.85444 1.6859 8.78192 1.73746 8.70467 1.78184C8.46703 1.92708 8.26024 2.11425 8.09523 2.33341C7.98707 2.47523 7.91258 2.63809 7.87702 2.8105C7.84145 2.9829 7.84568 3.1607 7.88942 3.33139C7.95003 3.56412 8.08456 3.77301 8.27431 3.92913C8.86237 4.44224 9.62685 3.94709 9.4932 3.24672C9.29809 3.29291 9.127 3.34165 8.95325 3.38269Z" fill="#3A3B7B"/>
<path id="Vector_8" d="M12.5458 4.82962C11.6771 5.34273 10.688 4.82962 10.4715 3.75213C10.3138 2.98249 10.6132 1.90498 11.661 1.4945C11.884 1.40905 12.1258 1.37905 12.364 1.40728C12.6503 1.45757 12.9128 1.59282 13.1147 1.79396C13.3166 1.9951 13.4477 2.25197 13.4893 2.5284C13.6658 3.44426 13.2648 4.42171 12.5458 4.82962ZM12.8478 3.10305C12.8476 2.88994 12.769 2.68371 12.626 2.52069C12.5495 2.41987 12.439 2.34763 12.3132 2.31627C12.1874 2.28493 12.0543 2.29642 11.9363 2.34881C11.4659 2.54378 11.1344 3.25185 11.2547 3.77266C11.2639 3.85439 11.2916 3.93321 11.3358 4.0036C11.38 4.07399 11.4397 4.13426 11.5108 4.18021C11.5818 4.22614 11.6624 4.25663 11.747 4.26955C11.8316 4.28245 11.9181 4.27747 12.0005 4.25496C12.2491 4.17158 12.4645 4.01577 12.6164 3.80925C12.7683 3.60274 12.8492 3.35584 12.8478 3.10305Z" fill="#3A3B7B"/>
<path id="Vector_9" d="M14.3678 5.0452C14.3547 5.13909 14.3033 5.22414 14.2248 5.28164C14.1464 5.33912 14.0473 5.36436 13.9495 5.35177C13.8517 5.33918 13.7631 5.2898 13.7032 5.2145C13.6433 5.13922 13.617 5.04416 13.6301 4.95027C13.6432 4.85637 13.6947 4.77133 13.7731 4.71383C13.8516 4.65633 13.9506 4.63111 14.0484 4.6437C14.1462 4.65628 14.2349 4.70564 14.2948 4.78094C14.3547 4.85624 14.381 4.9513 14.3678 5.0452ZM14.1353 1.58436C14.1861 1.50984 14.2607 1.45309 14.3479 1.42258C14.4351 1.39206 14.5302 1.38942 14.6191 1.41504C14.7095 1.43674 14.7893 1.48757 14.8453 1.55903C14.9012 1.63048 14.9299 1.71822 14.9265 1.80756C14.9147 1.95084 14.8924 2.09316 14.8597 2.23342C14.7715 2.70804 14.6859 3.18264 14.5924 3.65214C14.5496 3.83942 14.4935 4.019 14.432 4.20884C14.4106 4.26818 14.3749 4.32181 14.3278 4.36534C14.2985 4.39808 14.261 4.42319 14.2189 4.43835C14.1768 4.45353 14.1315 4.45826 14.087 4.45212C14.0425 4.44598 14.0003 4.42917 13.9643 4.40325C13.9284 4.37731 13.8999 4.34309 13.8814 4.30377C13.8496 4.23322 13.8323 4.15741 13.8306 4.08057C13.8306 3.76245 13.8306 3.44177 13.852 3.12107C13.8883 2.66342 13.9598 2.20895 14.0658 1.76138C14.0783 1.70141 14.1018 1.64407 14.1353 1.59206V1.58436Z" fill="#3A3B7B"/>
<path id="Vector_10" fill-rule="evenodd" clip-rule="evenodd" d="M2.14473 7.10673C2.11317 7.17435 2.10451 7.24974 2.11994 7.32229C2.1302 7.41792 2.15273 7.51199 2.18703 7.60235C2.22985 7.71299 2.27777 7.82239 2.33685 7.95724C2.35043 7.98827 2.36463 8.02066 2.37949 8.05474C2.45916 8.23743 2.55913 8.4709 2.69248 8.80878C2.73022 8.90477 2.76374 9.00154 2.79749 9.09898C2.81112 9.13835 2.82481 9.17785 2.83881 9.21743C2.88902 9.35818 2.9754 9.48462 3.08991 9.58483C3.13853 9.63991 3.20302 9.68004 3.27534 9.70011C3.34907 9.72058 3.42748 9.71928 3.50042 9.69639C3.57337 9.67349 3.63744 9.63005 3.68431 9.57171C3.73026 9.51452 3.75759 9.4456 3.7629 9.3736C3.79272 9.23334 3.78254 9.08791 3.7334 8.95269C3.65541 8.72818 3.56658 8.50333 3.46413 8.28342L3.46366 8.28245C3.29513 7.93838 3.12382 7.59669 2.94441 7.25487L2.94307 7.25247C2.89054 7.16341 2.82229 7.0838 2.74136 7.01721C2.68883 6.95778 2.61636 6.91769 2.53633 6.90387C2.4546 6.88976 2.3703 6.90398 2.29849 6.944C2.23056 6.98124 2.17671 7.03821 2.14473 7.10673Z" fill="#3A3B7B"/>
<path id="Vector_11" fill-rule="evenodd" clip-rule="evenodd" d="M4.71877 6.25956C4.45452 6.19387 4.17855 6.1843 3.91008 6.23152C3.70215 6.25117 3.49764 6.29721 3.35563 6.3884C3.2834 6.4348 3.22501 6.49439 3.19252 6.57013C3.15986 6.64629 3.15569 6.73339 3.18246 6.83043C3.23133 7.00818 3.29479 7.18101 3.35803 7.35329L3.36827 7.38119L3.36852 7.3818C3.55893 7.88228 3.75115 8.38107 3.94512 8.87813C3.96774 8.95647 3.99973 9.03204 4.04044 9.10331L4.0412 9.10463C4.09498 9.19318 4.16395 9.27237 4.24521 9.33889C4.28586 9.37546 4.33611 9.40077 4.39061 9.41208C4.44564 9.42348 4.50287 9.42018 4.55607 9.40249C4.60928 9.38482 4.6564 9.35346 4.69232 9.31183C4.72765 9.27088 4.75078 9.22154 4.75927 9.16904C4.79433 9.0264 4.7831 8.87688 4.72706 8.74054C4.70958 8.69466 4.69586 8.64776 4.6814 8.59841C4.67658 8.58195 4.67169 8.5652 4.66654 8.54815C5.11055 8.38157 5.58298 8.15758 5.74911 7.63651C5.81416 7.45644 5.81959 7.26146 5.76462 7.07829C5.70961 6.89492 5.59674 6.7324 5.44157 6.61309C5.23039 6.44607 4.98369 6.3254 4.71877 6.25956ZM3.9863 6.89869C3.99504 6.89627 4.00385 6.89402 4.01269 6.89193C4.30175 6.84832 4.59749 6.90643 4.84547 7.05554C4.95475 7.12848 4.99952 7.20953 5.0072 7.28751C5.01514 7.36781 4.98472 7.45482 4.92361 7.53846C4.80814 7.69645 4.59743 7.82291 4.40709 7.84648C4.26833 7.53978 4.12741 7.22066 3.9863 6.89869Z" fill="#3A3B7B"/>
<path id="Vector_12" d="M6.48048 5.69812C6.79517 5.55863 7.18497 5.53454 7.48999 5.63262C7.56682 5.65409 7.63346 5.70054 7.67854 5.76403C7.72333 5.82712 7.744 5.90314 7.73709 5.97915C7.73665 6.02848 7.72403 6.07702 7.70029 6.12081C7.67612 6.1654 7.64113 6.20373 7.59827 6.2326C7.55541 6.26145 7.50593 6.28 7.45404 6.28662C7.40212 6.29327 7.34933 6.28781 7.30008 6.27071L7.29634 6.26941L7.29282 6.26763C7.26762 6.25498 7.24085 6.24545 7.21317 6.23924L7.21142 6.23887C6.99685 6.18417 6.79445 6.2748 6.72052 6.38617C6.68526 6.43927 6.68088 6.49287 6.71025 6.54164C6.7417 6.59385 6.81884 6.65245 6.97493 6.69422C7.01785 6.70553 7.06186 6.71644 7.10649 6.72753C7.22992 6.75821 7.35818 6.79007 7.48222 6.83423L7.48269 6.83441C8.0549 7.04337 8.26797 7.47614 8.19502 7.88318C8.12286 8.28572 7.7726 8.65205 7.24588 8.73847C7.05421 8.77924 6.85475 8.7713 6.66723 8.71543C6.47925 8.65938 6.3098 8.55712 6.17572 8.41876L6.17223 8.41515C6.1299 8.36302 6.10143 8.30178 6.08881 8.2368C6.0772 8.17816 6.08332 8.11756 6.10641 8.06213C6.12936 8.00703 6.16819 7.95934 6.21829 7.9246C6.27122 7.88521 6.33502 7.86157 6.4018 7.85664C6.46835 7.85174 6.53495 7.86562 6.59339 7.89656C6.65176 7.92363 6.70606 7.95815 6.75479 7.99921L6.75571 7.99996C6.84193 8.07564 6.94623 8.09535 7.04625 8.07709C7.14774 8.05856 7.24316 8.00093 7.30454 7.92446C7.36551 7.84848 7.38999 7.75822 7.36094 7.67059C7.33171 7.58233 7.24381 7.48344 7.05069 7.40077C7.00021 7.3802 6.94787 7.3636 6.89342 7.34745C6.87873 7.3431 6.86381 7.33876 6.8487 7.33436C6.80844 7.32263 6.76701 7.31055 6.72639 7.29724C6.69841 7.28808 6.67066 7.27941 6.64318 7.27081C6.56806 7.24733 6.49483 7.22445 6.42435 7.19375C6.27095 7.14362 6.13842 7.04737 6.04649 6.91924C5.95418 6.7906 5.90773 6.63676 5.91405 6.4807C5.91455 6.10039 6.16411 5.83838 6.48048 5.69812Z" fill="#3A3B7B"/>
<path id="Vector_13" d="M10.4701 5.65752C10.409 5.62892 10.3416 5.61534 10.2737 5.618C10.2059 5.62069 10.1398 5.63952 10.0814 5.67286C10.0235 5.70596 9.9749 5.7523 9.9401 5.80777C9.90821 5.85449 9.88613 5.90673 9.87512 5.96159C9.86411 6.0164 9.86438 6.07273 9.87588 6.12742C9.88725 6.1977 9.89984 6.26605 9.91229 6.33345C9.93289 6.44499 9.95293 6.55402 9.96615 6.66519L9.96665 6.66801C9.99675 6.84235 10.0125 7.01868 10.0139 7.19538L10.0141 7.19789C10.0243 7.38871 9.9566 7.57582 9.82535 7.71951L9.82327 7.72206C9.78056 7.77459 9.72347 7.81468 9.65835 7.83785C9.59325 7.86102 9.52273 7.86635 9.45465 7.85323C9.38657 7.84012 9.32364 7.80909 9.27289 7.76361C9.22214 7.71812 9.18553 7.65981 9.16726 7.59553C9.12826 7.46005 9.10569 7.32069 9.09995 7.18026L9.16657 6.16225C9.16756 6.14896 9.16868 6.13532 9.16982 6.12154C9.17235 6.09062 9.17495 6.05914 9.17603 6.02976C9.1776 5.98654 9.17625 5.94209 9.16576 5.90002C9.15502 5.85702 9.1346 5.81611 9.09838 5.78128C9.06251 5.7468 9.01409 5.72136 8.95316 5.70404C8.84298 5.67343 8.74982 5.6744 8.67219 5.70602C8.59452 5.73764 8.5413 5.79635 8.50364 5.86417C8.46627 5.93142 8.44226 6.01103 8.4241 6.09078C8.41063 6.14995 8.3998 6.21207 8.38952 6.2712C8.38595 6.29157 8.38248 6.31157 8.37896 6.331L8.37887 6.33158C8.32381 6.65584 8.30743 6.98508 8.33002 7.3129C8.33424 7.49007 8.37273 7.66494 8.44356 7.82859C8.52348 8.03975 8.66822 8.22269 8.8587 8.35329C9.04958 8.48416 9.27735 8.55627 9.51188 8.56007C9.7464 8.56388 9.9766 8.49921 10.172 8.37464C10.3671 8.25024 10.5182 8.07196 10.6055 7.86338C10.7276 7.59767 10.785 7.3087 10.7731 7.0185C10.766 6.80664 10.7539 6.59315 10.742 6.38074C10.7361 6.27654 10.7303 6.17257 10.725 6.06924C10.7224 5.96561 10.6868 5.86525 10.623 5.78161C10.5835 5.72873 10.531 5.68609 10.4701 5.65752Z" fill="#3A3B7B"/>
<path id="Vector_14" d="M12.6297 7.25389C12.6235 7.26144 12.617 7.26925 12.6102 7.27737C12.5606 7.00258 12.5146 6.72787 12.4685 6.45274C12.452 6.35403 12.4354 6.25489 12.4187 6.15605L12.4168 6.14502L12.4107 6.1355C12.3992 6.11756 12.3981 6.09998 12.3981 6.06248V6.05815L12.3974 6.05386C12.3849 5.97642 12.3484 5.90436 12.2927 5.8471C12.2371 5.79 12.1649 5.75026 12.0854 5.73301C12.0061 5.71424 11.9228 5.71837 11.846 5.74491C11.7693 5.77138 11.7025 5.81896 11.6538 5.88167C11.6134 5.9298 11.5802 5.98318 11.5554 6.04022C11.499 6.16309 11.4421 6.28627 11.3851 6.40979L11.3841 6.41192C11.2418 6.72027 11.0984 7.0307 10.9593 7.34356L10.9588 7.34457C10.8734 7.54744 10.8029 7.76119 10.7326 7.97429C10.7186 8.01682 10.7045 8.05934 10.6904 8.10174C10.665 8.16899 10.6539 8.24041 10.6577 8.31182C10.6531 8.37574 10.6691 8.43951 10.7034 8.4945C10.7385 8.55062 10.791 8.59476 10.8536 8.62075C10.9199 8.64865 10.994 8.65457 11.0643 8.63758C11.1343 8.62061 11.1966 8.5818 11.2412 8.52722C11.2981 8.46 11.3471 8.38668 11.387 8.309C11.5049 8.07756 11.6176 7.84329 11.7297 7.61004C11.7731 7.51982 11.8153 7.43902 11.8633 7.35102C11.8666 7.36187 11.8699 7.37245 11.8734 7.38306C11.9237 7.59552 12.0085 7.79902 12.1249 7.9861C12.1469 8.02573 12.1775 8.06037 12.2148 8.08763C12.2524 8.11523 12.2959 8.13459 12.3421 8.14443C12.3884 8.15426 12.4363 8.15431 12.4826 8.14456C12.5288 8.13483 12.5724 8.11545 12.6101 8.08799L12.6846 8.0344L13.2635 7.56643L13.2293 7.7758C13.1823 8.0636 13.1357 8.34901 13.0861 8.63448C13.0537 8.761 13.0537 8.89317 13.0863 9.01965C13.1003 9.09083 13.1362 9.15637 13.1893 9.2079C13.2428 9.25985 13.3114 9.29515 13.3861 9.30923C13.4607 9.32329 13.5381 9.3155 13.6081 9.28683C13.6771 9.2586 13.7358 9.21138 13.7768 9.15119C13.8723 9.03754 13.9317 8.89994 13.948 8.75478C13.9726 8.54978 14.0003 8.34199 14.0281 8.13426C14.0601 7.89483 14.0921 7.65546 14.1191 7.42069L14.1192 7.41996C14.1452 7.16297 14.1578 6.90492 14.1569 6.64671C14.1626 6.56512 14.1414 6.48383 14.0963 6.41436C14.0511 6.34465 13.984 6.29045 13.9048 6.25945C13.8224 6.22349 13.7302 6.21388 13.6416 6.23205C13.5537 6.2501 13.4741 6.29459 13.4144 6.35904C13.3076 6.45382 13.2075 6.55524 13.1145 6.66264L13.1139 6.66337C13.0125 6.78468 12.9117 6.90837 12.8116 7.03127C12.7508 7.10598 12.6901 7.18051 12.6297 7.25389Z" fill="#3A3B7B"/>
</g>
<defs>
<clipPath id="clip0_212_1132">
<rect width="15.6917" height="9.68213" fill="white" transform="translate(0.704895 0.0324707)"/>
</clipPath>
</defs>
</svg>
