<svg width="14" height="14" viewBox="0 0 14 14" fill="none" xmlns="http://www.w3.org/2000/svg">
<g clip-path="url(#clip0_212_1122)">
<path fill-rule="evenodd" clip-rule="evenodd" d="M3.75084 0.0803223C5.59471 0.0803223 7.0895 1.57509 7.0895 3.41899V0.0803223H10.4282C12.272 0.0803223 13.7668 1.57509 13.7668 3.41899C13.7668 5.26287 12.272 6.75765 10.4282 6.75765C12.272 6.75765 13.7668 8.25244 13.7668 10.0963C13.7668 11.0119 13.3983 11.8414 12.8015 12.4445L12.789 12.4571L12.7779 12.4681C12.1746 13.0658 11.3445 13.435 10.4282 13.435C9.51808 13.435 8.69303 13.0708 8.09077 12.4803C8.08295 12.4726 8.07514 12.4649 8.06736 12.4571C8.06005 12.4498 8.05277 12.4425 8.04553 12.4351C7.45422 11.8327 7.0895 11.0071 7.0895 10.0963C7.0895 11.9402 5.59471 13.435 3.75084 13.435C1.90694 13.435 0.41217 11.9402 0.41217 10.0963V6.75765H3.75084C1.90694 6.75765 0.41217 5.26287 0.41217 3.41899C0.41217 1.57509 1.90694 0.0803223 3.75084 0.0803223ZM6.42177 3.41899C6.42177 4.89411 5.22596 6.08992 3.75084 6.08992V0.748055C5.22596 0.748055 6.42177 1.94387 6.42177 3.41899ZM13.0991 10.0963C13.0991 8.6212 11.9033 7.42539 10.4282 7.42539C8.95304 7.42539 7.75723 8.6212 7.75723 10.0963H13.0991ZM1.0799 7.42539V10.0963C1.0799 11.5714 2.27572 12.7673 3.75084 12.7673C5.22596 12.7673 6.42177 11.5714 6.42177 10.0963V7.42539H1.0799ZM7.75723 6.08992V0.748055H10.4282C11.9033 0.748055 13.0991 1.94387 13.0991 3.41899C13.0991 4.89411 11.9033 6.08992 10.4282 6.08992H7.75723Z" fill="#263238"/>
</g>
<defs>
<clipPath id="clip0_212_1122">
<rect width="13.3547" height="13.3547" fill="white" transform="translate(0.41217 0.0803223)"/>
</clipPath>
</defs>
</svg>
