<svg width="20" height="11" viewBox="0 0 20 11" fill="none" xmlns="http://www.w3.org/2000/svg">
<g id="Logo" clip-path="url(#clip0_212_1128)">
<path id="Vector" d="M19.2992 4.26085C19.3011 4.24693 19.3011 4.23285 19.2992 4.21893C19.301 4.20759 19.301 4.19602 19.2992 4.18465L19.1632 3.20554C19.1435 3.0884 19.0911 2.97891 19.0116 2.88933L18.9883 2.86266L18.9456 2.82075L16.5906 0.832046L16.6566 0.896818C16.6026 0.833422 16.5348 0.782714 16.4581 0.748429C16.3814 0.714143 16.2979 0.697152 16.2137 0.698708H15.4986C15.3823 0.696449 15.2687 0.732691 15.1761 0.801573C15.0788 0.733106 14.9616 0.69705 14.8419 0.698708H14.1268C14.033 0.697216 13.9405 0.720034 13.8586 0.764857C13.7767 0.80968 13.7084 0.874917 13.6605 0.953961C13.5866 1.06686 13.5589 1.20288 13.5828 1.33494L13.6722 1.95212C13.6129 1.91921 13.5459 1.90214 13.4778 1.9026H10.0154C9.89113 1.90336 9.76976 1.93906 9.6656 2.00546C9.56489 2.06726 9.48404 2.15576 9.43245 2.26071L9.1643 2.03594C9.05877 1.94021 8.91947 1.88832 8.7757 1.89117H3.34298C3.21831 1.89339 3.09641 1.92754 2.98936 1.99022C2.8429 2.07426 2.73557 2.21091 2.69012 2.3712L0.964706 8.02871C0.932467 8.12194 0.929296 8.22247 0.955598 8.31748C0.9819 8.41245 1.03648 8.49764 1.11238 8.56209C1.13215 8.57852 1.15292 8.59379 1.17456 8.60779C1.17456 8.60779 1.13958 8.58493 1.12015 8.5659L3.47511 10.5584C3.57473 10.6483 3.70498 10.6986 3.84038 10.6994H9.31587C9.44092 10.6962 9.5629 10.6607 9.66951 10.5965C9.7298 10.5642 9.78374 10.5216 9.82883 10.4708L9.84826 10.4441L9.87935 10.406L9.90266 10.3641L10.1592 10.5813C10.2573 10.6676 10.3848 10.7151 10.5167 10.7146H16.0038C16.1287 10.7105 16.2505 10.6751 16.3574 10.6117C16.4164 10.5775 16.47 10.5351 16.5168 10.486L16.5362 10.4593L16.5673 10.4213C16.5838 10.3971 16.5981 10.3717 16.61 10.345C16.6227 10.322 16.6331 10.2977 16.6411 10.2727L18.215 5.10662V5.0609C18.2169 5.04317 18.2169 5.02529 18.215 5.00756V4.97329C18.2168 4.96192 18.2168 4.95035 18.215 4.93898C18.2167 4.91489 18.2167 4.8907 18.215 4.86659H18.7202C18.7641 4.87055 18.8083 4.87055 18.8523 4.86659H18.8873C18.9157 4.85828 18.9431 4.84676 18.9689 4.83231H19.0077L19.0777 4.77898L19.1088 4.75611L19.1632 4.68753V4.66469L19.202 4.59991C19.1999 4.58732 19.1999 4.57442 19.202 4.56183C19.2 4.55564 19.2 4.54896 19.202 4.54277C19.2103 4.52044 19.2168 4.4975 19.2215 4.47419C19.2196 4.46668 19.2196 4.45884 19.2215 4.45133C19.2196 4.43998 19.2196 4.42839 19.2215 4.41705C19.2215 4.41705 19.2992 4.26846 19.2992 4.26085Z" fill="black"/>
<path id="Vector_2" d="M8.93499 2.32548C8.95562 2.34377 8.97003 2.36782 8.97628 2.39438C8.98256 2.42095 8.98034 2.44876 8.96998 2.47406L7.24846 8.12776C7.22678 8.18949 7.18243 8.24109 7.1241 8.27254C7.07664 8.30367 7.0217 8.32205 6.96475 8.32588H1.49318C1.44646 8.32368 1.40219 8.3047 1.36883 8.27254C1.34898 8.25454 1.33506 8.23115 1.32882 8.20539C1.32259 8.1796 1.32435 8.15258 1.33385 8.12776L3.05927 2.47406C3.07915 2.41155 3.1221 2.35857 3.17974 2.32548C3.22798 2.29659 3.28265 2.27959 3.33906 2.27595H8.81064C8.857 2.27639 8.90145 2.2941 8.93499 2.32548ZM6.07873 6.98864L7.10854 3.61318H4.2251L3.19916 6.98864H6.07873ZM14.1579 2.38262C14.1765 2.40389 14.1999 2.42076 14.2261 2.43197C14.2524 2.44318 14.2808 2.44845 14.3094 2.44739H15.0206C15.0477 2.44765 15.0743 2.44114 15.0982 2.42847C15.122 2.41581 15.1421 2.3974 15.1566 2.375C15.1692 2.3575 15.1781 2.3377 15.1828 2.31675C15.1875 2.29581 15.1878 2.27416 15.1838 2.25309L15.0439 1.24731C15.0306 1.20076 15.0067 1.15778 14.974 1.12159C14.9553 1.10032 14.932 1.08345 14.9057 1.07224C14.8795 1.06103 14.851 1.05576 14.8224 1.05682H14.1112C14.0842 1.05656 14.0575 1.06307 14.0337 1.07574C14.0099 1.08841 13.9897 1.10681 13.9752 1.12921C13.948 1.18255 13.9364 1.21683 13.948 1.24731L14.0918 2.25309C14.0992 2.30207 14.1223 2.34745 14.1579 2.38262ZM16.4157 1.23969C16.4023 1.19314 16.3784 1.15016 16.3457 1.11397C16.3278 1.09278 16.3052 1.07592 16.2796 1.06468C16.254 1.05345 16.2261 1.04815 16.1981 1.0492H15.483C15.4564 1.04846 15.43 1.05479 15.4068 1.06754C15.3835 1.08028 15.3642 1.09896 15.3509 1.12159C15.325 1.15539 15.3138 1.19784 15.3198 1.23969L15.4636 2.24547C15.4726 2.29393 15.4955 2.33886 15.5297 2.375C15.5487 2.39586 15.572 2.41244 15.5982 2.42362C15.6244 2.4348 15.6527 2.4403 15.6812 2.43977H16.3962C16.4228 2.44011 16.449 2.43361 16.4722 2.4209C16.4954 2.4082 16.5148 2.38975 16.5284 2.36739C16.5419 2.35034 16.5513 2.33054 16.5561 2.30945C16.5608 2.28835 16.5606 2.26649 16.5556 2.24547L16.4157 1.23969ZM13.5322 2.7636L13.4623 2.26833H10.0153C9.96121 2.27125 9.90885 2.28836 9.86376 2.31786C9.83514 2.33316 9.81023 2.35437 9.79077 2.38002C9.77133 2.40567 9.75779 2.43515 9.75108 2.46644L9.4635 3.41126C9.45203 3.43487 9.4481 3.46136 9.45226 3.4872C9.45644 3.51304 9.46848 3.53703 9.48681 3.55604C9.51959 3.58623 9.56236 3.60384 9.60729 3.60557H13.7965L12.7667 6.98103H8.58914C8.53527 6.98223 8.48281 6.99806 8.43759 7.02673C8.38263 7.06096 8.34249 7.11387 8.32489 7.17532L8.03344 8.12015C8.02392 8.14439 8.02142 8.17073 8.02622 8.19627C8.03104 8.22184 8.04292 8.24558 8.06062 8.26491C8.09237 8.29713 8.13548 8.31621 8.1811 8.31824H13.6682C13.725 8.31346 13.7797 8.29516 13.8275 8.26491C13.8849 8.23331 13.928 8.1816 13.948 8.12015L15.5258 2.95409H13.7498C13.7217 2.95463 13.6937 2.94951 13.6676 2.93902C13.6415 2.92854 13.618 2.91291 13.5983 2.89313C13.5662 2.85858 13.5434 2.81666 13.5322 2.77122V2.7636Z" fill="white"/>
</g>
<defs>
<clipPath id="clip0_212_1128">
<rect width="18.3627" height="10.016" fill="white" transform="translate(0.937958 0.698608)"/>
</clipPath>
</defs>
</svg>
