<svg width="52" height="9" viewBox="0 0 52 9" fill="none" xmlns="http://www.w3.org/2000/svg">
<path d="M6.3489 4.89465L4.54905 7.9772L2.74921 4.89465H6.3489ZM6.83108 4.61914H2.26509L4.54905 8.52244L6.83108 4.61914Z" fill="#263238"/>
<path d="M9.47816 1.06065L11.278 4.1432H7.6783L9.47816 1.06065ZM9.47816 0.509644L7.19418 4.41293H11.7621L9.47816 0.509644Z" fill="#263238"/>
<path d="M0.0767822 0.509644L1.99181 3.96211L4.08446 0.596336L0.0767822 0.509644Z" fill="#4CAF4F"/>
<path d="M4.5491 0.812012L6.55782 4.24521H2.53647L4.5491 0.812012Z" fill="#4CAF4F"/>
<path d="M7.07513 4.99487L9.0858 8.52249H4.9688L7.01265 4.99487H7.07513Z" fill="#4CAF4F"/>
<path d="M7.51044 4.78088L9.47816 8.25454L11.4732 4.78088H7.51044Z" fill="#4CAF4F"/>
<path d="M20.1197 1.06689V7.86563H18.8781L15.9203 3.58654H15.8705V7.86563H14.433V1.06689H15.6945L18.6291 5.34266H18.6889V1.06689H20.1197Z" fill="#263238"/>
<path d="M23.6045 7.96522C23.08 7.96522 22.6285 7.85899 22.2501 7.64653C21.8739 7.43186 21.5839 7.12866 21.3803 6.73694C21.1767 6.343 21.0749 5.87713 21.0749 5.33934C21.0749 4.81483 21.1767 4.3545 21.3803 3.95835C21.5839 3.5622 21.8705 3.25347 22.2401 3.03215C22.6119 2.81084 23.0479 2.70018 23.5481 2.70018C23.8845 2.70018 24.1977 2.75441 24.4876 2.86285C24.7797 2.96908 25.0342 3.12953 25.2511 3.34421C25.4702 3.55888 25.6406 3.82888 25.7623 4.15421C25.8841 4.47733 25.9449 4.85577 25.9449 5.28955V5.67795H21.6393V4.80155H24.6137C24.6137 4.59794 24.5695 4.41757 24.4809 4.26044C24.3924 4.10331 24.2696 3.98048 24.1124 3.89196C23.9575 3.80122 23.7772 3.75585 23.5713 3.75585C23.3567 3.75585 23.1663 3.80564 23.0003 3.90523C22.8366 4.00261 22.7082 4.13429 22.6153 4.30028C22.5223 4.46405 22.4747 4.64663 22.4725 4.84803V5.68127C22.4725 5.93357 22.519 6.15156 22.6119 6.33525C22.7071 6.51894 22.841 6.66058 23.0136 6.76017C23.1863 6.85976 23.391 6.90956 23.6278 6.90956C23.7849 6.90956 23.9288 6.88743 24.0593 6.84316C24.1899 6.7989 24.3017 6.73251 24.3946 6.64398C24.4876 6.55546 24.5584 6.44702 24.6071 6.31865L25.915 6.40497C25.8486 6.71923 25.7125 6.99366 25.5067 7.22825C25.3031 7.46063 25.0397 7.64211 24.7166 7.77268C24.3957 7.90104 24.025 7.96522 23.6045 7.96522Z" fill="#263238"/>
<path d="M27.9583 2.76658L28.8945 4.54926L29.8539 2.76658H31.3046L29.8273 5.31611L31.3444 7.86563H29.9003L28.8945 6.10287L27.9052 7.86563H26.4445L27.9583 5.31611L26.4976 2.76658H27.9583Z" fill="#263238"/>
<path d="M34.2657 7.96522C33.7434 7.96522 33.2942 7.85457 32.9179 7.63325C32.5439 7.40973 32.2562 7.09989 32.0548 6.70374C31.8556 6.30759 31.756 5.85168 31.756 5.33602C31.756 4.81372 31.8567 4.35561 32.0581 3.96167C32.2617 3.56552 32.5506 3.25679 32.9246 3.03547C33.2986 2.81195 33.7434 2.70018 34.2591 2.70018C34.7039 2.70018 35.0934 2.78096 35.4276 2.94252C35.7618 3.10408 36.0263 3.33093 36.221 3.62306C36.4158 3.91519 36.5231 4.25823 36.543 4.65217H35.2085C35.1709 4.39766 35.0713 4.19294 34.9098 4.03802C34.7504 3.88089 34.5413 3.80232 34.2823 3.80232C34.0632 3.80232 33.8718 3.86208 33.708 3.98159C33.5465 4.09888 33.4203 4.2704 33.3296 4.49614C33.2388 4.72188 33.1935 4.9952 33.1935 5.31611C33.1935 5.64144 33.2377 5.91808 33.3263 6.14603C33.417 6.37398 33.5443 6.54771 33.708 6.66722C33.8718 6.78673 34.0632 6.84649 34.2823 6.84649C34.4439 6.84649 34.5889 6.81329 34.7172 6.74689C34.8478 6.6805 34.9551 6.58423 35.0392 6.45808C35.1255 6.32972 35.182 6.17591 35.2085 5.99664H36.543C36.5209 6.38615 36.4147 6.72919 36.2244 7.02575C36.0362 7.32009 35.7762 7.55026 35.4442 7.71625C35.1123 7.88223 34.7194 7.96522 34.2657 7.96522Z" fill="#263238"/>
<path d="M39.7723 7.96522C39.2478 7.96522 38.7963 7.85899 38.4178 7.64653C38.0416 7.43186 37.7517 7.12866 37.5481 6.73694C37.3445 6.343 37.2427 5.87713 37.2427 5.33934C37.2427 4.81483 37.3445 4.3545 37.5481 3.95835C37.7517 3.5622 38.0383 3.25347 38.4079 3.03215C38.7797 2.81084 39.2157 2.70018 39.7158 2.70018C40.0522 2.70018 40.3654 2.75441 40.6553 2.86285C40.9475 2.96908 41.202 3.12953 41.4189 3.34421C41.638 3.55888 41.8084 3.82888 41.9301 4.15421C42.0518 4.47733 42.1127 4.85577 42.1127 5.28955V5.67795H37.807V4.80155H40.7815C40.7815 4.59794 40.7372 4.41757 40.6487 4.26044C40.5602 4.10331 40.4373 3.98048 40.2802 3.89196C40.1253 3.80122 39.9449 3.75585 39.7391 3.75585C39.5244 3.75585 39.3341 3.80564 39.1681 3.90523C39.0043 4.00261 38.876 4.13429 38.783 4.30028C38.6901 4.46405 38.6425 4.64663 38.6403 4.84803V5.68127C38.6403 5.93357 38.6867 6.15156 38.7797 6.33525C38.8749 6.51894 39.0088 6.66058 39.1814 6.76017C39.354 6.85976 39.5587 6.90956 39.7955 6.90956C39.9527 6.90956 40.0965 6.88743 40.2271 6.84316C40.3577 6.7989 40.4694 6.73251 40.5624 6.64398C40.6553 6.55546 40.7261 6.44702 40.7748 6.31865L42.0828 6.40497C42.0164 6.71923 41.8803 6.99366 41.6745 7.22825C41.4709 7.46063 41.2075 7.64211 40.8844 7.77268C40.5635 7.90104 40.1928 7.96522 39.7723 7.96522Z" fill="#263238"/>
<path d="M44.4497 4.91774V7.86563H43.0355V2.76658H44.3833V3.66622H44.4431C44.556 3.36966 44.7452 3.13506 45.0108 2.96244C45.2763 2.7876 45.5983 2.70018 45.9768 2.70018C46.3309 2.70018 46.6396 2.77764 46.903 2.93256C47.1663 3.08748 47.3711 3.3088 47.5171 3.5965C47.6632 3.882 47.7362 4.22282 47.7362 4.61897V7.86563H46.322V4.87127C46.3243 4.55921 46.2446 4.31577 46.083 4.14093C45.9215 3.96388 45.699 3.87536 45.4158 3.87536C45.2254 3.87536 45.0572 3.9163 44.9112 3.99819C44.7673 4.08007 44.6544 4.19958 44.5726 4.35671C44.4929 4.51163 44.4519 4.69864 44.4497 4.91774Z" fill="#263238"/>
<path d="M51.563 2.76658V3.82888H48.4923V2.76658H51.563ZM49.1894 1.54493H50.6036V6.29874C50.6036 6.42931 50.6235 6.53111 50.6634 6.60415C50.7032 6.67497 50.7585 6.72476 50.8294 6.75353C50.9024 6.7823 50.9865 6.79669 51.0817 6.79669C51.148 6.79669 51.2144 6.79116 51.2808 6.78009C51.3472 6.76681 51.3981 6.75685 51.4335 6.75021L51.656 7.80256C51.5851 7.82469 51.4855 7.85014 51.3572 7.87891C51.2288 7.90989 51.0728 7.92871 50.8891 7.93535C50.5483 7.94862 50.2495 7.90325 49.9928 7.79924C49.7383 7.69522 49.5402 7.53366 49.3986 7.31456C49.2569 7.09546 49.1872 6.81882 49.1894 6.48464V1.54493Z" fill="#263238"/>
</svg>
