<svg width="20" height="11" viewBox="0 0 20 11" fill="none" xmlns="http://www.w3.org/2000/svg">
<g id="Logo" clip-path="url(#clip0_212_1156)">
<path id="Vector" d="M19.0251 4.26085C19.027 4.24693 19.027 4.23285 19.0251 4.21893C19.0269 4.20759 19.0269 4.19602 19.0251 4.18465L18.889 3.20554C18.8694 3.0884 18.8169 2.97891 18.7375 2.88933L18.7141 2.86266L18.6714 2.82075L16.3165 0.832046L16.3825 0.896818C16.3285 0.833422 16.2606 0.782714 16.184 0.748429C16.1073 0.714143 16.0238 0.697152 15.9395 0.698708H15.2245C15.1082 0.696449 14.9946 0.732691 14.9019 0.801573C14.8046 0.733106 14.6875 0.69705 14.5677 0.698708H13.8527C13.7589 0.697216 13.6664 0.720034 13.5845 0.764857C13.5026 0.80968 13.4343 0.874917 13.3864 0.953961C13.3125 1.06686 13.2848 1.20288 13.3086 1.33494L13.398 1.95212C13.3388 1.91921 13.2718 1.90214 13.2037 1.9026H9.74122C9.61699 1.90336 9.49562 1.93906 9.39146 2.00546C9.29075 2.06726 9.2099 2.15576 9.15831 2.26071L8.89016 2.03594C8.78463 1.94021 8.64533 1.88832 8.50156 1.89117H3.06884C2.94417 1.89339 2.82227 1.92754 2.71522 1.99022C2.56876 2.07426 2.46143 2.21091 2.41598 2.3712L0.690567 8.02871C0.658328 8.12194 0.655156 8.22247 0.681459 8.31748C0.707761 8.41245 0.762345 8.49764 0.838239 8.56209C0.858014 8.57852 0.878779 8.59379 0.900417 8.60779C0.900417 8.60779 0.865437 8.58493 0.846007 8.5659L3.20097 10.5584C3.30059 10.6483 3.43084 10.6986 3.56624 10.6994H9.04173C9.16678 10.6962 9.28876 10.6607 9.39537 10.5965C9.45566 10.5642 9.5096 10.5216 9.55469 10.4708L9.57412 10.4441L9.60521 10.406L9.62852 10.3641L9.88501 10.5813C9.9832 10.6676 10.1106 10.7151 10.2425 10.7146H15.7296C15.8546 10.7105 15.9763 10.6751 16.0833 10.6117C16.1422 10.5775 16.1958 10.5351 16.2426 10.486L16.262 10.4593L16.2931 10.4213C16.3096 10.3971 16.324 10.3717 16.3359 10.345C16.3486 10.322 16.359 10.2977 16.367 10.2727L17.9408 5.10662V5.0609C17.9428 5.04317 17.9428 5.02529 17.9408 5.00756V4.97329C17.9427 4.96192 17.9427 4.95035 17.9408 4.93898C17.9426 4.91489 17.9426 4.8907 17.9408 4.86659H18.446C18.49 4.87055 18.5342 4.87055 18.5781 4.86659H18.6131C18.6416 4.85828 18.6689 4.84676 18.6947 4.83231H18.7336L18.8035 4.77898L18.8346 4.75611L18.889 4.68753V4.66469L18.9279 4.59991C18.9257 4.58732 18.9257 4.57442 18.9279 4.56183C18.9258 4.55564 18.9258 4.54896 18.9279 4.54277C18.9361 4.52044 18.9426 4.4975 18.9473 4.47419C18.9455 4.46668 18.9455 4.45884 18.9473 4.45133C18.9454 4.43998 18.9454 4.42839 18.9473 4.41705C18.9473 4.41705 19.0251 4.26846 19.0251 4.26085Z" fill="black"/>
<path id="Vector_2" d="M8.66091 2.32548C8.68155 2.34377 8.69595 2.36782 8.7022 2.39438C8.70848 2.42095 8.70626 2.44876 8.6959 2.47406L6.97438 8.12776C6.9527 8.18949 6.90835 8.24109 6.85002 8.27254C6.80256 8.30367 6.74763 8.32205 6.69068 8.32588H1.21911C1.17238 8.32368 1.12811 8.3047 1.09475 8.27254C1.0749 8.25454 1.06098 8.23115 1.05475 8.20539C1.04852 8.1796 1.05027 8.15258 1.05978 8.12776L2.78519 2.47406C2.80507 2.41155 2.84803 2.35857 2.90566 2.32548C2.9539 2.29659 3.00857 2.27959 3.06499 2.27595H8.53656C8.58292 2.27639 8.62738 2.2941 8.66091 2.32548ZM5.80465 6.98864L6.83447 3.61318H3.95102L2.92508 6.98864H5.80465ZM13.8838 2.38262C13.9025 2.40389 13.9258 2.42076 13.952 2.43197C13.9783 2.44318 14.0067 2.44845 14.0354 2.44739H14.7465C14.7736 2.44765 14.8003 2.44114 14.8241 2.42847C14.8479 2.41581 14.868 2.3974 14.8825 2.375C14.8951 2.3575 14.9041 2.3377 14.9087 2.31675C14.9134 2.29581 14.9137 2.27416 14.9097 2.25309L14.7698 1.24731C14.7565 1.20076 14.7326 1.15778 14.6999 1.12159C14.6812 1.10032 14.6579 1.08345 14.6316 1.07224C14.6054 1.06103 14.5769 1.05576 14.5483 1.05682H13.8372C13.8101 1.05656 13.7834 1.06307 13.7596 1.07574C13.7358 1.08841 13.7157 1.10681 13.7012 1.12921C13.6739 1.18255 13.6623 1.21683 13.6739 1.24731L13.8177 2.25309C13.8251 2.30207 13.8483 2.34745 13.8838 2.38262ZM16.1416 1.23969C16.1283 1.19314 16.1043 1.15016 16.0716 1.11397C16.0538 1.09278 16.0311 1.07592 16.0055 1.06468C15.9799 1.05345 15.952 1.04815 15.924 1.0492H15.2089C15.1823 1.04846 15.156 1.05479 15.1327 1.06754C15.1094 1.08028 15.0901 1.09896 15.0768 1.12159C15.051 1.15539 15.0398 1.19784 15.0457 1.23969L15.1895 2.24547C15.1985 2.29393 15.2214 2.33886 15.2556 2.375C15.2746 2.39586 15.298 2.41244 15.3241 2.42362C15.3503 2.4348 15.3786 2.4403 15.4071 2.43977H16.1222C16.1487 2.44011 16.1749 2.43361 16.1981 2.4209C16.2213 2.4082 16.2407 2.38975 16.2543 2.36739C16.2678 2.35034 16.2773 2.33054 16.282 2.30945C16.2867 2.28835 16.2865 2.26649 16.2815 2.24547L16.1416 1.23969ZM13.2581 2.7636L13.1882 2.26833H9.74125C9.68713 2.27125 9.63477 2.28836 9.58968 2.31786C9.56107 2.33316 9.53615 2.35437 9.51669 2.38002C9.49726 2.40567 9.48371 2.43515 9.47701 2.46644L9.18943 3.41126C9.17795 3.43487 9.17402 3.46136 9.17818 3.4872C9.18236 3.51304 9.1944 3.53703 9.21274 3.55604C9.24551 3.58623 9.28828 3.60384 9.33322 3.60557H13.5224L12.4926 6.98103H8.31506C8.26119 6.98223 8.20873 6.99806 8.16351 7.02673C8.10855 7.06096 8.06841 7.11387 8.05081 7.17532L7.75936 8.12015C7.74984 8.14439 7.74734 8.17073 7.75214 8.19627C7.75696 8.22184 7.76884 8.24558 7.78654 8.26491C7.8183 8.29713 7.8614 8.31621 7.90702 8.31824H13.3941C13.4509 8.31346 13.5056 8.29516 13.5535 8.26491C13.6108 8.23331 13.6539 8.1816 13.6739 8.12015L15.2517 2.95409H13.4758C13.4476 2.95463 13.4196 2.94951 13.3935 2.93902C13.3675 2.92854 13.3439 2.91291 13.3242 2.89313C13.2921 2.85858 13.2694 2.81666 13.2581 2.77122V2.7636Z" fill="white"/>
</g>
<defs>
<clipPath id="clip0_212_1156">
<rect width="18.3627" height="10.016" fill="white" transform="translate(0.663818 0.698608)"/>
</clipPath>
</defs>
</svg>
