<svg width="14" height="10" viewBox="0 0 14 10" fill="none" xmlns="http://www.w3.org/2000/svg">
<g id="Logo" clip-path="url(#clip0_212_1148)">
<path id="Vector" d="M12.9709 0.648032C12.9709 0.803612 13.0986 0.929732 13.2561 0.929732H13.5413C13.6988 0.929732 13.8264 0.803612 13.8264 0.648032C13.8264 0.492454 13.6988 0.366333 13.5413 0.366333H13.2561C13.0986 0.366333 12.9709 0.492454 12.9709 0.648032Z" fill="#212326"/>
<path id="Vector_2" d="M4.70084 9.38073H6.08619L5.68288 8.98234C5.57593 8.87669 5.43085 8.81733 5.27959 8.81733H4.70084C2.49585 8.81733 0.708356 7.05163 0.708356 4.87353C0.708356 2.69543 2.49585 0.929735 4.70084 0.929733H9.26369C11.4687 0.929733 13.2562 2.69543 13.2562 4.87353C13.2562 7.05163 11.4687 8.81733 9.26369 8.81733H7.55682C7.32991 8.81733 7.11231 8.72829 6.95185 8.56982L6.47937 8.10307C6.21197 7.83893 5.84927 7.69053 5.4711 7.69053H4.70084C3.12584 7.69053 1.84907 6.42933 1.84907 4.87353C1.84907 3.31774 3.12584 2.05653 4.70084 2.05653H9.26369C10.8387 2.05653 12.1155 3.31774 12.1155 4.87353C12.1155 6.42933 10.8387 7.69053 9.26369 7.69053H8.16771C7.9408 7.69053 7.7232 7.60149 7.56275 7.44302L7.09025 6.97627C6.82284 6.71213 6.46016 6.56373 6.08199 6.56373H4.70084C3.75586 6.56373 2.98978 5.80699 2.98978 4.87353C2.98978 3.94007 3.75586 3.18333 4.70084 3.18333H9.26369C10.2087 3.18333 10.9748 3.94007 10.9748 4.87353C10.9748 5.79561 10.2272 6.54525 9.29818 6.56339L9.298 6.56373H8.88066C8.65375 6.56373 8.43615 6.47469 8.27569 6.31622L7.80319 5.84948C7.58379 5.63272 7.30023 5.49392 6.99659 5.45108L6.98226 5.43693H4.70084C4.38585 5.43693 4.13049 5.18469 4.13049 4.87353C4.13049 4.56238 4.38585 4.31013 4.70084 4.31013H9.26369C9.57868 4.31013 9.83404 4.56238 9.83404 4.87353C9.83404 5.18469 9.57868 5.43693 9.26369 5.43693H8.12298L8.52629 5.83532C8.63324 5.94097 8.77831 6.00033 8.92957 6.00033H9.26369C9.89368 6.00033 10.4044 5.49584 10.4044 4.87353C10.4044 4.25122 9.89368 3.74673 9.26369 3.74673H4.70084C4.07085 3.74673 3.56013 4.25122 3.56013 4.87353C3.56013 5.49584 4.07085 6.00033 4.70084 6.00033H6.79494C7.02185 6.00033 7.23945 6.08937 7.3999 6.24784L7.87241 6.71459C8.13981 6.97873 8.50249 7.12713 8.88066 7.12713H9.40628V7.1228C10.5998 7.0501 11.5451 6.07085 11.5451 4.87353C11.5451 3.62891 10.5237 2.61993 9.26369 2.61993H4.70084C3.44086 2.61993 2.41942 3.62891 2.41942 4.87353C2.41942 6.11817 3.44086 7.12713 4.70084 7.12713H6.08199C6.3089 7.12713 6.52651 7.21617 6.68696 7.37464L7.15946 7.84139C7.42687 8.10553 7.78955 8.25393 8.16771 8.25393H9.26369C11.1537 8.25393 12.6858 6.74048 12.6858 4.87353C12.6858 3.00658 11.1537 1.49313 9.26369 1.49313H4.70084C2.81085 1.49313 1.27871 3.00658 1.27871 4.87353C1.27871 6.74048 2.81085 8.25393 4.70084 8.25393H5.4711C5.69801 8.25393 5.91561 8.34297 6.07606 8.50144L6.54857 8.96819C6.81597 9.23233 7.17865 9.38073 7.55682 9.38073H9.26369C11.7837 9.38073 13.8265 7.36279 13.8265 4.87353C13.8265 2.38427 11.7837 0.366333 9.26369 0.366333L4.70084 0.366334C2.18085 0.366334 0.138 2.38428 0.138 4.87353C0.138001 7.36279 2.18086 9.38073 4.70084 9.38073Z" fill="#212326"/>
</g>
<defs>
<clipPath id="clip0_212_1148">
<rect width="13.6885" height="9.0144" fill="white" transform="translate(0.138 0.366333)"/>
</clipPath>
</defs>
</svg>
